<svg width="45" height="45" viewBox="0 0 45 45" fill="none" xmlns="http://www.w3.org/2000/svg">
<path d="M0 39.1976C0 42.4025 2.59787 45 5.80236 45H39.1975C42.4025 45 45 42.4021 45 39.1976V5.80254C45 2.59752 42.4021 0 39.1976 0H5.80254C2.59752 0 0 2.59787 0 5.80236V39.1975V39.1976Z" fill="#563D7C"/>
<path d="M18.6606 19.9051V13.5325H24.27C24.8043 13.5325 25.3194 13.577 25.8154 13.6661C26.3115 13.7551 26.7504 13.914 27.132 14.143C27.5135 14.3721 27.8188 14.69 28.0479 15.097C28.2767 15.5041 28.3913 16.0256 28.3913 16.6614C28.3913 17.8063 28.0479 18.6332 27.3609 19.1419C26.6741 19.6508 25.7965 19.9051 24.7279 19.9051H18.6606ZM12.6694 8.87695V36.123H25.8727C27.0939 36.123 28.2832 35.9705 29.4408 35.6651C30.5983 35.3598 31.6285 34.8892 32.5317 34.2533C33.4347 33.6173 34.1535 32.7967 34.6877 31.792C35.222 30.787 35.4891 29.5977 35.4891 28.224C35.4891 26.5194 35.0756 25.0631 34.2489 23.8547C33.422 22.6463 32.1691 21.8004 30.49 21.317C31.7112 20.732 32.6335 19.9814 33.2568 19.0656C33.88 18.1498 34.1916 17.0051 34.1916 15.6312C34.1916 14.3592 33.9817 13.2908 33.562 12.4258C33.1422 11.561 32.5507 10.8677 31.7875 10.3461C31.0244 9.82459 30.1086 9.4493 29.04 9.22043C27.9716 8.99139 26.7886 8.87695 25.4911 8.87695H12.6694ZM18.6606 31.4675V23.9882H25.1858C26.4832 23.9882 27.5263 24.287 28.3151 24.885C29.1036 25.4828 29.4981 26.4813 29.4981 27.8805C29.4981 28.5929 29.3771 29.1779 29.1354 29.6358C28.8937 30.0938 28.5694 30.4564 28.1623 30.7234C27.7554 30.9906 27.2846 31.1813 26.7504 31.2959C26.216 31.4102 25.6565 31.4675 25.0714 31.4675H18.6606Z" fill="white"/>
</svg>
