<svg width="42" height="47" viewBox="0 0 42 47" fill="none" xmlns="http://www.w3.org/2000/svg">
<path d="M41.4747 0.6521H0V46.2742H41.4747V0.6521Z" fill="#F7DF1E"/>
<path d="M27.8604 33.0544C28.6959 34.4184 29.7828 35.421 31.7051 35.421C33.32 35.421 34.3516 34.6139 34.3516 33.4987C34.3516 32.1623 33.2916 31.689 31.5142 30.9115L30.5398 30.4935C27.7275 29.2953 25.8591 27.7943 25.8591 24.6212C25.8591 21.6982 28.0862 19.4731 31.5668 19.4731C34.0448 19.4731 35.8262 20.3355 37.1099 22.5935L34.0751 24.5422C33.4069 23.344 32.686 22.872 31.5668 22.872C30.4253 22.872 29.7018 23.5962 29.7018 24.5422C29.7018 25.7114 30.4259 26.1847 32.0981 26.9089L33.0724 27.3262C36.3838 28.7463 38.2535 30.1939 38.2535 33.4487C38.2535 36.9576 35.497 38.8799 31.7953 38.8799C28.1758 38.8799 25.8374 37.1551 24.6932 34.8944L27.8604 33.0544ZM14.0928 33.3921C14.7051 34.4783 15.262 35.3967 16.6011 35.3967C17.8815 35.3967 18.6893 34.8957 18.6893 32.9477V19.6956H22.5866V33.0004C22.5866 37.0359 20.2205 38.8727 16.767 38.8727C13.6465 38.8727 11.8394 37.2578 10.9203 35.3127L14.0928 33.3921Z" fill="black"/>
</svg>
