<svg width="34" height="34" viewBox="0 0 34 34" fill="none" xmlns="http://www.w3.org/2000/svg">
<path d="M9.51957 14.4779C9.71883 14.2786 9.98908 14.1667 10.2709 14.1667H20.1875C20.4693 14.1667 20.7396 14.2786 20.9388 14.4779C21.1381 14.6771 21.25 14.9474 21.25 15.2292C21.25 15.511 21.1381 15.7812 20.9388 15.9805C20.7396 16.1797 20.4693 16.2917 20.1875 16.2917H10.2709C9.98908 16.2917 9.71883 16.1797 9.51957 15.9805C9.32032 15.7812 9.20837 15.511 9.20837 15.2292C9.20837 14.9474 9.32032 14.6771 9.51957 14.4779Z" fill="black"/>
<path fill-rule="evenodd" clip-rule="evenodd" d="M4.2351 9.50359C3.31426 11.2716 2.83342 13.2357 2.83337 15.2292C2.83332 17.5903 3.50763 19.9024 4.77695 21.8933C6.04627 23.8843 7.85781 25.4713 9.99844 26.4676C12.1391 27.464 14.5197 27.8282 16.8603 27.5175C19.201 27.2068 21.4041 26.2341 23.2107 24.7138L29.3534 30.855C29.4506 30.9594 29.5679 31.0432 29.6983 31.1012C29.8286 31.1593 29.9693 31.1905 30.112 31.193C30.2546 31.1956 30.3963 31.1693 30.5286 31.1159C30.6609 31.0624 30.7811 30.9829 30.882 30.882C30.9829 30.7811 31.0624 30.6609 31.1159 30.5286C31.1693 30.3963 31.1956 30.2546 31.193 30.112C31.1905 29.9693 31.1593 29.8286 31.1012 29.6983C31.0432 29.5679 30.9594 29.4506 30.855 29.3534L24.7138 23.2107C25.9973 21.6854 26.894 19.873 27.3279 17.9273C27.7618 15.9816 27.72 13.96 27.206 12.0339C26.6921 10.1078 25.7213 8.33405 24.3758 6.86311C23.0303 5.39216 21.3499 4.26742 19.4771 3.58427C17.6044 2.90112 15.5944 2.67972 13.6179 2.93886C11.6413 3.19799 9.75639 3.93001 8.123 5.07282C6.48961 6.21563 5.15594 7.73553 4.2351 9.50359ZM7.96663 7.96663C9.89279 6.04047 12.5052 4.95837 15.2292 4.95837C17.9532 4.95837 20.5656 6.04047 22.4918 7.96663C24.4179 9.89278 25.5 12.5052 25.5 15.2292C25.5 17.9532 24.4179 20.5656 22.4918 22.4918C20.5656 24.4179 17.9532 25.5 15.2292 25.5C12.5052 25.5 9.89279 24.4179 7.96663 22.4918C6.04048 20.5656 4.95837 17.9532 4.95837 15.2292C4.95837 12.5052 6.04048 9.89278 7.96663 7.96663Z" fill="black"/>
</svg>
