<svg width="34" height="34" viewBox="0 0 34 34" fill="none" xmlns="http://www.w3.org/2000/svg">
<path fill-rule="evenodd" clip-rule="evenodd" d="M17 1.41667C8.39371 1.41667 1.41663 8.39375 1.41663 17C1.41663 25.6063 8.39371 32.5833 17 32.5833C25.6062 32.5833 32.5833 25.6063 32.5833 17C32.5833 8.39375 25.6062 1.41667 17 1.41667ZM25.1888 17.7359C25.388 17.5367 25.5 17.2664 25.5 16.9846C25.5 16.7028 25.388 16.4326 25.1888 16.2333C24.9895 16.0341 24.7193 15.9221 24.4375 15.9221H12.2343L16.667 11.7359C16.865 11.5408 16.9786 11.2759 16.9835 10.998C16.9884 10.7202 16.8843 10.4514 16.6934 10.2494C16.5026 10.0474 16.2401 9.92826 15.9624 9.91747C15.6847 9.90668 15.4138 10.0051 15.2079 10.1917L8.83571 16.2097C8.73168 16.307 8.64833 16.4242 8.59065 16.5545C8.53296 16.6847 8.50212 16.8252 8.49996 16.9676V16.9846L8.50137 17.0016C8.50443 17.2422 8.58938 17.4745 8.74221 17.6604C8.7696 17.695 8.79993 17.7273 8.83288 17.7567L15.2079 23.7775C15.4138 23.9641 15.6847 24.0626 15.9624 24.0518C16.2401 24.041 16.5026 23.9218 16.6934 23.7198C16.8843 23.5178 16.9884 23.2491 16.9835 22.9712C16.9786 22.6933 16.865 22.4285 16.667 22.2334L12.2343 18.0471H24.4375C24.7193 18.0471 24.9895 17.9352 25.1888 17.7359Z" fill="#9A9A9A"/>
</svg>
