<svg width="40" height="40" viewBox="0 0 40 40" fill="none" xmlns="http://www.w3.org/2000/svg">
<path d="M20.0001 0C8.95576 0 0 8.95419 0 20.0001C0 28.8368 5.73062 36.3336 13.6773 38.9782C14.6768 39.1633 15.0439 38.5444 15.0439 38.0161C15.0439 37.5392 15.0252 35.9636 15.0167 34.2924C9.45253 35.5023 8.27845 31.9327 8.27845 31.9327C7.36868 29.6209 6.05783 29.0063 6.05783 29.0063C4.2433 27.765 6.1946 27.7904 6.1946 27.7904C8.203 27.9316 9.26054 29.8515 9.26054 29.8515C11.0443 32.9091 13.9393 32.0251 15.0806 31.5142C15.26 30.2214 15.7784 29.3392 16.3503 28.8398C11.9081 28.3339 7.23818 26.619 7.23818 18.9556C7.23818 16.7721 8.01948 14.9879 9.29897 13.5873C9.09129 13.0835 8.40676 11.0493 9.49268 8.29445C9.49268 8.29445 11.1722 7.7569 14.9941 10.3446C16.5894 9.9013 18.3004 9.67919 20.0001 9.67166C21.6998 9.67919 23.412 9.9013 25.0104 10.3446C28.8278 7.7569 30.505 8.29445 30.505 8.29445C31.5936 11.0493 30.9087 13.0835 30.701 13.5873C31.9833 14.9879 32.7593 16.772 32.7593 18.9556C32.7593 26.6372 28.0806 28.3287 23.6271 28.8238C24.3444 29.4444 24.9836 30.6617 24.9836 32.5275C24.9836 35.2035 24.9604 37.3573 24.9604 38.0161C24.9604 38.5483 25.3204 39.1719 26.3343 38.9756C34.2766 36.328 40 28.8338 40 20.0001C40 8.95419 31.0455 0 20.0001 0Z" fill="white"/>
<path d="M7.49066 28.4906C7.44674 28.5899 7.2902 28.6197 7.14793 28.5516C7.00284 28.4864 6.92127 28.3508 6.96833 28.2511C7.01146 28.1488 7.16801 28.1203 7.31279 28.189C7.45819 28.2541 7.54101 28.3908 7.49066 28.4906ZM8.47447 29.3684C8.3791 29.4568 8.1926 29.4158 8.06602 29.276C7.9352 29.1365 7.91073 28.9502 8.00751 28.8603C8.10586 28.772 8.28672 28.8133 8.41785 28.9529C8.54867 29.0939 8.57408 29.2791 8.47432 29.3685L8.47447 29.3684ZM9.14943 30.4915C9.02677 30.5767 8.8263 30.4968 8.70254 30.3189C8.58004 30.1412 8.58004 29.9279 8.70521 29.8424C8.82944 29.7569 9.02677 29.8338 9.15225 30.0102C9.2746 30.1911 9.2746 30.4044 9.14927 30.4916L9.14943 30.4915ZM10.2907 31.7923C10.1811 31.9131 9.94768 31.8808 9.7767 31.7158C9.60196 31.5545 9.55318 31.3256 9.66314 31.2047C9.77404 31.0836 10.0089 31.1177 10.1811 31.2813C10.3547 31.4422 10.4077 31.6728 10.2909 31.7923H10.2907ZM11.7658 32.2315C11.7177 32.388 11.4927 32.4593 11.2662 32.3927C11.04 32.3242 10.892 32.1407 10.9376 31.9824C10.9847 31.8248 11.2105 31.7506 11.4388 31.8218C11.6646 31.89 11.813 32.0721 11.766 32.2315H11.7658ZM13.4448 32.4177C13.4505 32.5827 13.2583 32.7195 13.0205 32.7225C12.7813 32.7276 12.5879 32.5942 12.5854 32.432C12.5854 32.2654 12.7732 32.1299 13.0122 32.1259C13.25 32.1212 13.4448 32.2538 13.4448 32.4177ZM15.094 32.3545C15.1226 32.5154 14.9572 32.6807 14.7212 32.7247C14.489 32.767 14.2741 32.6677 14.2445 32.5082C14.2156 32.3432 14.3841 32.178 14.6158 32.1352C14.8523 32.0941 15.0639 32.1909 15.094 32.3545Z" fill="white"/>
</svg>
