<svg width="45" height="45" viewBox="0 0 45 45" fill="none" xmlns="http://www.w3.org/2000/svg">
<path d="M0 0H45V45H0V0Z" fill="#017ACB"/>
<path d="M21.6071 16.664H23.7657V20.3906H17.9297V36.9703L17.775 37.0125C17.5641 37.0687 14.7867 37.0687 14.1891 37.0055L13.7109 36.9633V20.3906H7.875V16.664L9.72422 16.643C10.7367 16.6289 13.3383 16.6289 15.5039 16.643C17.6695 16.657 20.4117 16.664 21.6071 16.664ZM38.0813 35.2125C37.2235 36.1195 36.3024 36.6258 34.7696 37.0406C34.1016 37.2234 33.9891 37.2305 32.4844 37.2234C30.9797 37.2164 30.8602 37.2164 30.1289 37.0265C28.2375 36.5414 26.7118 35.5922 25.6711 34.2492C25.3758 33.8695 24.8907 33.082 24.8907 32.9836C24.8907 32.9555 24.961 32.8922 25.0524 32.85C25.1438 32.8078 25.3336 32.6883 25.4883 32.5969C25.643 32.5055 25.9242 32.3367 26.1141 32.2383C26.3039 32.1398 26.8524 31.8164 27.3305 31.5281C27.8086 31.2398 28.2446 31.0078 28.2938 31.0078C28.343 31.0078 28.4344 31.1062 28.5047 31.2258C28.9266 31.9359 29.911 32.843 30.6071 33.1523C31.036 33.3351 31.9852 33.539 32.4422 33.539C32.8641 33.539 33.6375 33.3562 34.0524 33.1664C34.4954 32.9625 34.7204 32.7586 34.9875 32.3508C35.1704 32.0625 35.1915 31.9851 35.1844 31.4367C35.1844 30.9305 35.1563 30.7898 35.0157 30.5578C34.6219 29.9109 34.0875 29.5734 31.9219 28.6172C29.686 27.6258 28.6805 27.0351 27.8649 26.2406C27.2602 25.65 27.1407 25.4883 26.761 24.75C26.2688 23.8008 26.2055 23.4914 26.1985 22.0781C26.1914 21.0867 26.2125 20.7633 26.318 20.4258C26.4657 19.9195 26.9438 18.9422 27.1618 18.6961C27.6118 18.1687 27.7735 18.007 28.0899 17.7469C29.0461 16.9594 30.5368 16.4391 31.9641 16.3898C32.1258 16.3898 32.6602 16.418 33.1594 16.4531C34.5938 16.5726 35.5711 16.9242 36.5133 17.6765C37.2235 18.239 38.2993 19.5609 38.1938 19.7367C38.1235 19.8422 35.318 21.7125 35.1352 21.7687C35.0227 21.8039 34.9454 21.7617 34.7907 21.5789C33.8344 20.4328 33.4477 20.1867 32.5196 20.1305C31.8586 20.0883 31.5071 20.1656 31.0641 20.4609C30.6 20.7703 30.375 21.2414 30.375 21.8953C30.3821 22.8515 30.7477 23.3015 32.0977 23.9695C32.9696 24.3984 33.7149 24.75 33.7711 24.75C33.8555 24.75 35.6625 25.65 36.1336 25.9312C38.3274 27.218 39.2204 28.5398 39.4524 30.818C39.6211 32.5336 39.136 34.1015 38.0813 35.2125Z" fill="white"/>
</svg>
