<svg width="40" height="40" viewBox="0 0 40 40" fill="none" xmlns="http://www.w3.org/2000/svg">
<path d="M2.84282 19.9988C2.84282 26.7901 6.78938 32.6585 12.5122 35.4399L4.32821 13.0165C3.34714 15.2134 2.84097 17.5928 2.84282 19.9988ZM31.5816 19.133C31.5816 17.0127 30.82 15.5443 30.1667 14.4014C29.297 12.9881 28.4822 11.7913 28.4822 10.3781C28.4822 8.80096 29.678 7.33288 31.3629 7.33288C31.4389 7.33288 31.5111 7.34235 31.5855 7.34659C28.5328 4.55015 24.4661 2.84277 19.9995 2.84277C14.0057 2.84277 8.73245 5.91801 5.66473 10.5759C6.06725 10.588 6.44692 10.5962 6.76881 10.5962C8.56335 10.5962 11.3412 10.3784 11.3412 10.3784C12.266 10.3239 12.3751 11.6823 11.4515 11.7916C11.4515 11.7916 10.5218 11.901 9.48755 11.9552L15.7353 30.5388L19.4902 19.2783L16.8169 11.9549C15.893 11.9007 15.0178 11.7913 15.0178 11.7913C14.0932 11.7371 14.2016 10.3236 15.1261 10.3781C15.1261 10.3781 17.9595 10.5958 19.6453 10.5958C21.4395 10.5958 24.2177 10.3781 24.2177 10.3781C25.1432 10.3236 25.2519 11.682 24.3277 11.7913C24.3277 11.7913 23.3963 11.9007 22.364 11.9549L28.5641 30.3978L30.2751 24.6792C31.0171 22.3062 31.5816 20.6018 31.5816 19.133Z" fill="white"/>
<path d="M20.3005 21.4996L15.1529 36.4572C16.7267 36.921 18.3588 37.1565 19.9995 37.1565C21.9974 37.1565 23.9134 36.8108 25.6969 36.184C25.649 36.1091 25.6082 36.03 25.5748 35.9476L20.3005 21.4996ZM35.0538 11.7675C35.1276 12.314 35.1694 12.901 35.1694 13.5317C35.1694 15.2727 34.8442 17.2298 33.8649 19.6769L28.6242 34.8288C33.7248 31.8545 37.1556 26.3285 37.1556 19.9988C37.1601 17.1217 36.4372 14.2902 35.0538 11.7675Z" fill="white"/>
<path d="M19.9995 0C8.97206 0 0 8.97139 0 19.9988C0 31.0276 8.97174 39.9989 19.9995 39.9989C31.0266 39.9989 40 31.0279 40 19.9988C39.9997 8.97139 31.0266 0 19.9995 0ZM19.9995 39.0819C9.47775 39.0819 0.917022 30.5212 0.917022 19.9988C0.917022 9.4774 9.47742 0.917347 19.9995 0.917347C30.5209 0.917347 39.081 9.4774 39.081 19.9988C39.081 30.5212 30.5206 39.0819 19.9995 39.0819Z" fill="white"/>
</svg>
