<svg width="100" height="100" viewBox="0 0 100 100" fill="none" xmlns="http://www.w3.org/2000/svg">
<g id="github">
<g id="github_2">
<path id="Vector" d="M50.0002 1C22.3894 1 0 23.3855 0 51.0002C0 73.092 14.3266 91.834 34.1933 98.4456C36.692 98.9083 37.6096 97.3609 37.6096 96.0402C37.6096 94.848 37.563 90.909 37.5418 86.7311C23.6313 89.7557 20.6961 80.8317 20.6961 80.8317C18.4217 75.0523 15.1446 73.5159 15.1446 73.5159C10.6083 70.4124 15.4865 70.476 15.4865 70.476C20.5075 70.8289 23.1513 75.6287 23.1513 75.6287C27.6108 83.2728 34.8482 81.0627 37.7014 79.7854C38.15 76.5534 39.4461 74.348 40.8758 73.0994C29.7703 71.8347 18.0954 67.5474 18.0954 48.3889C18.0954 42.9303 20.0487 38.4697 23.2474 34.9682C22.7282 33.7086 21.0169 28.6233 23.7317 21.7361C23.7317 21.7361 27.9304 20.3923 37.4853 26.8614C41.4734 25.7532 45.7509 25.198 50.0002 25.1791C54.2495 25.198 58.5301 25.7532 62.526 26.8614C72.0696 20.3923 76.2624 21.7361 76.2624 21.7361C78.9839 28.6233 77.2718 33.7086 76.7526 34.9682C79.9584 38.4697 81.8983 42.9299 81.8983 48.3889C81.8983 67.5929 70.2014 71.8218 59.0677 73.0594C60.861 74.6111 62.459 77.6541 62.459 82.3187C62.459 89.0086 62.4009 94.3932 62.4009 96.0402C62.4009 97.3707 63.3009 98.9299 65.8357 98.4389C85.6915 91.8199 100 73.0845 100 51.0002C100 23.3855 77.6137 1 50.0002 1Z" fill="#161614"/>
<path id="Vector_2" d="M18.7266 72.2265C18.6168 72.4748 18.2255 72.5493 17.8698 72.3791C17.5071 72.2159 17.3032 71.8771 17.4208 71.6277C17.5286 71.3721 17.92 71.3007 18.282 71.4724C18.6455 71.6352 18.8525 71.9771 18.7266 72.2265ZM21.1862 74.421C20.9477 74.6421 20.4815 74.5394 20.165 74.19C19.838 73.8414 19.7768 73.3755 20.0188 73.1508C20.2646 72.93 20.7168 73.0332 21.0446 73.3822C21.3717 73.7347 21.4352 74.1978 21.1858 74.4214L21.1862 74.421ZM22.8736 77.2287C22.5669 77.4416 22.0657 77.242 21.7563 76.7974C21.4501 76.3531 21.4501 75.8197 21.763 75.606C22.0736 75.3923 22.5669 75.5845 22.8806 76.0256C23.1865 76.4778 23.1865 77.0111 22.8732 77.2291L22.8736 77.2287ZM25.7268 80.4808C25.4527 80.7827 24.8692 80.7019 24.4417 80.2894C24.0049 79.8863 23.8829 79.3141 24.1578 79.0118C24.4351 78.709 25.0221 78.7941 25.4527 79.2032C25.8868 79.6055 26.0193 80.1819 25.7272 80.4808H25.7268ZM29.4145 81.5788C29.2941 81.9701 28.7318 82.1481 28.1655 81.9819C27.6001 81.8105 27.2299 81.3517 27.344 80.956C27.4616 80.5619 28.0263 80.3764 28.5969 80.5545C29.1616 80.7251 29.5326 81.1803 29.4149 81.5788H29.4145ZM33.612 82.0442C33.6261 82.4568 33.1458 82.7987 32.5513 82.8062C31.9533 82.8191 31.4697 82.4854 31.4635 82.0799C31.4635 81.6635 31.9329 81.3246 32.5305 81.3148C33.125 81.3031 33.612 81.6344 33.612 82.0442ZM37.735 81.8862C37.8064 82.2885 37.3931 82.7019 36.8029 82.8117C36.2225 82.9175 35.6853 82.6693 35.6112 82.2705C35.539 81.858 35.9602 81.445 36.5394 81.338C37.1307 81.2352 37.6597 81.4772 37.735 81.8862Z" fill="#161614"/>
</g>
</g>
</svg>
