<svg width="40" height="36" viewBox="0 0 40 36" fill="none" xmlns="http://www.w3.org/2000/svg">
<path d="M25.0303 23.209H22.2999L22.0718 22.981V16.5893C22.0718 15.4522 21.6249 14.5707 20.2536 14.5399C19.5478 14.5214 18.7404 14.5399 17.8775 14.5738L17.748 14.7063V17.2889V22.9779L17.52 23.2059H14.7895L14.5615 22.9779V12.0591L14.7895 11.831H20.9346C23.323 11.831 25.2584 13.7664 25.2584 16.1548V22.981L25.0303 23.209Z" fill="white"/>
<path d="M10.7616 29.2586H10.3856L8.50883 27.3818V27.0058L11.378 24.1367H13.3657L13.6308 24.4017V26.3894L10.7616 29.2586Z" fill="#32E6E2"/>
<path d="M8.50883 8.03118V7.65519L10.3856 5.77837H10.7616L13.6308 8.64751V10.6353L13.3657 10.9003H11.378L8.50883 8.03118Z" fill="#32E6E2"/>
<path d="M11.1499 19.1164H0.227984L-6.86646e-05 18.8883V16.1517L0.227984 15.9236H11.1499L11.3779 16.1517V18.8883L11.1499 19.1164Z" fill="#32E6E2"/>
<path d="M39.5949 19.1164H28.6729L28.4449 18.8883V16.1517L28.6729 15.9236H39.5949L39.8229 16.1517V18.8883L39.5949 19.1164Z" fill="#32E6E2"/>
<path d="M18.3367 8.41948V0.228053L18.5647 0H21.3013L21.5294 0.228053V8.41948L21.3013 8.64751H18.5647L18.3367 8.41948Z" fill="#32E6E2"/>
<path d="M18.3367 34.8119V26.6206L18.5647 26.3925H21.3013L21.5294 26.6206V34.8119L21.3013 35.04H18.5647L18.3367 34.8119Z" fill="#32E6E2"/>
</svg>
