<svg width="40" height="39" viewBox="0 0 40 39" fill="none" xmlns="http://www.w3.org/2000/svg">
<path d="M7.08333 0H32.9167C36.8333 0 40 3.16667 40 7.08333V31.9167C40 35.8333 36.8333 39 32.9167 39H7.08333C3.16667 39 0 35.8333 0 31.9167V7.08333C0 3.16667 3.16667 0 7.08333 0Z" fill="#001E36"/>
<path d="M9 27.35V10.2C9 10.0833 9.05 10.0167 9.16667 10.0167C9.45 10.0167 9.71667 10.0167 10.1 10C10.5 9.98333 10.9167 9.98333 11.3667 9.96666C11.8167 9.95 12.3 9.95 12.8167 9.93333C13.3333 9.91666 13.8333 9.91666 14.3333 9.91666C15.7 9.91666 16.8333 10.0833 17.7667 10.4333C18.6 10.7167 19.3667 11.1833 20 11.8C20.5333 12.3333 20.95 12.9833 21.2167 13.7C21.4667 14.4 21.6 15.1167 21.6 15.8667C21.6 17.3 21.2667 18.4833 20.6 19.4167C19.9333 20.35 19 21.05 17.9167 21.45C16.7833 21.8667 15.5333 22.0167 14.1667 22.0167C13.7667 22.0167 13.5 22.0167 13.3333 22C13.1667 21.9833 12.9333 21.9833 12.6167 21.9833V27.3333C12.6333 27.45 12.55 27.55 12.4333 27.5667C12.4167 27.5667 12.4 27.5667 12.3667 27.5667H9.2C9.06667 27.5667 9 27.5 9 27.35ZM12.6333 13.2333V18.8333C12.8667 18.85 13.0833 18.8667 13.2833 18.8667H14.1667C14.8167 18.8667 15.4667 18.7667 16.0833 18.5667C16.6167 18.4167 17.0833 18.1 17.45 17.6833C17.8 17.2667 17.9667 16.7 17.9667 15.9667C17.9833 15.45 17.85 14.9333 17.5833 14.4833C17.3 14.05 16.9 13.7167 16.4167 13.5333C15.8 13.2833 15.1333 13.1833 14.45 13.2C14.0167 13.2 13.6333 13.2 13.3167 13.2167C12.9833 13.2 12.75 13.2167 12.6333 13.2333Z" fill="#31A8FF"/>
<path d="M32 17.8167C31.5 17.55 30.9667 17.3667 30.4 17.25C29.7833 17.1167 29.1667 17.0333 28.5333 17.0333C28.2 17.0167 27.85 17.0667 27.5333 17.15C27.3167 17.2 27.1333 17.3167 27.0167 17.4833C26.9333 17.6167 26.8833 17.7833 26.8833 17.9333C26.8833 18.0833 26.95 18.2333 27.05 18.3667C27.2 18.55 27.4 18.7 27.6167 18.8167C28 19.0167 28.4 19.2 28.8 19.3667C29.7 19.6667 30.5667 20.0833 31.3667 20.5833C31.9167 20.9333 32.3667 21.4 32.6833 21.9667C32.95 22.5 33.0833 23.0833 33.0666 23.6833C33.0833 24.4667 32.85 25.25 32.4167 25.9C31.95 26.5667 31.3 27.0833 30.55 27.3833C29.7333 27.7333 28.7333 27.9167 27.5333 27.9167C26.7667 27.9167 26.0167 27.85 25.2667 27.7C24.6833 27.6 24.1 27.4167 23.5667 27.1667C23.45 27.1 23.3667 26.9833 23.3833 26.85V23.95C23.3833 23.9 23.4 23.8333 23.45 23.8C23.5 23.7667 23.55 23.7833 23.6 23.8167C24.25 24.2 24.9333 24.4667 25.6667 24.6333C26.3 24.8 26.9667 24.8833 27.6333 24.8833C28.2667 24.8833 28.7167 24.8 29.0167 24.65C29.2833 24.5333 29.4667 24.25 29.4667 23.95C29.4667 23.7167 29.3333 23.5 29.0666 23.2833C28.8 23.0667 28.25 22.8167 27.4333 22.5C26.5833 22.2 25.8 21.8 25.0667 21.3C24.55 20.9333 24.1167 20.45 23.8 19.8833C23.5333 19.35 23.4 18.7667 23.4167 18.1833C23.4167 17.4667 23.6167 16.7833 23.9833 16.1667C24.4 15.5 25.0167 14.9667 25.7333 14.6333C26.5167 14.2333 27.5 14.05 28.6833 14.05C29.3667 14.05 30.0667 14.1 30.75 14.2C31.25 14.2667 31.7333 14.4 32.1833 14.5833C32.25 14.6 32.3167 14.6667 32.35 14.7333C32.3667 14.8 32.3833 14.8667 32.3833 14.9333V17.65C32.3833 17.7167 32.35 17.7833 32.3 17.8167C32.15 17.85 32.0667 17.85 32 17.8167Z" fill="#31A8FF"/>
</svg>
