<svg width="58" height="43" viewBox="0 0 58 43" fill="none" xmlns="http://www.w3.org/2000/svg">
<path d="M49.9425 24.719C47.9191 24.7295 46.1605 25.2113 44.6879 25.9234C44.1477 24.8656 43.6074 23.9231 43.512 23.2319C43.4061 22.4254 43.279 21.9332 43.4061 20.9697C43.5332 20.0062 44.1053 18.6342 44.0947 18.5295C44.0841 18.4248 43.9676 17.9325 42.8022 17.9221C41.6369 17.9116 40.6305 18.142 40.5139 18.4457C40.3974 18.7494 40.1749 19.4406 40.0266 20.1528C39.8253 21.2001 37.696 24.9389 36.4777 26.8974C36.0857 26.1329 35.7467 25.4626 35.6725 24.9285C35.5666 24.1221 35.4395 23.6298 35.5666 22.6663C35.6937 21.7028 36.2658 20.3308 36.2552 20.2261C36.2446 20.1214 36.1281 19.6291 34.9627 19.6187C33.7974 19.6082 32.791 19.8386 32.6744 20.1423C32.5579 20.446 32.4308 21.1582 32.1871 21.8494C31.9435 22.5406 29.1149 28.7825 28.3733 30.3954C27.9919 31.2227 27.6635 31.8825 27.4304 32.3329C27.4304 32.3329 27.4199 32.3643 27.3881 32.4167C27.1868 32.8042 27.0703 33.0136 27.0703 33.0136C27.0703 33.0136 27.0703 33.0136 27.0703 33.0241C26.9113 33.3069 26.7418 33.5687 26.6571 33.5687C26.5935 33.5687 26.477 32.8146 26.6783 31.7883C27.102 29.6204 28.1085 26.2481 28.0979 26.1329C28.0979 26.07 28.2886 25.4835 27.441 25.1798C26.6147 24.8761 26.3181 25.3788 26.2439 25.3788C26.1698 25.3788 26.1168 25.5569 26.1168 25.5569C26.1168 25.5569 27.0385 21.7656 24.3582 21.7656C22.6844 21.7656 20.3749 23.5775 19.2308 25.2113C18.5104 25.5988 16.9742 26.4261 15.3322 27.3163C14.7071 27.6619 14.0609 28.0075 13.4571 28.3322C13.4147 28.2903 13.3723 28.2379 13.3299 28.1961C10.0882 24.7714 4.09203 22.3521 4.34629 17.7545C4.44163 16.0788 5.0243 11.6801 15.8619 6.33892C24.782 1.99263 31.8799 3.19702 33.1088 5.86764C34.8674 9.67981 29.3056 16.7595 20.0889 17.7859C16.5717 18.1734 14.7283 16.8329 14.2622 16.3302C13.7749 15.8065 13.7007 15.7751 13.5206 15.8798C13.224 16.0369 13.4147 16.5082 13.5206 16.7805C13.7961 17.4927 14.9296 18.7494 16.8471 19.3673C18.5421 19.9119 22.6632 20.2156 27.6529 18.3095C33.2359 16.1731 37.6006 10.2349 36.3187 5.2602C35.0369 0.212222 26.5617 -1.45298 18.5421 1.36425C13.7749 3.03993 8.60504 5.67912 4.88658 9.11426C0.46891 13.1987 -0.230289 16.7491 0.0557473 18.2362C1.08336 23.5146 8.44614 26.9498 11.3912 29.4947C11.2429 29.5785 11.1052 29.6518 10.9887 29.7146C9.51612 30.4373 3.90134 33.3383 2.50294 36.4069C0.913855 39.8839 2.7572 42.3765 3.9755 42.7116C7.75753 43.7484 11.6455 41.8843 13.7325 38.8052C15.8195 35.7261 15.5653 31.7254 14.6012 29.8927C14.5906 29.8717 14.58 29.8508 14.5588 29.8298C14.9402 29.6099 15.3322 29.3795 15.7136 29.1596C16.4657 28.7197 17.2073 28.3113 17.8429 27.9761C17.4828 28.9501 17.2179 30.1126 17.0908 31.7883C16.9319 33.7572 17.7476 36.3126 18.8176 37.318C19.2943 37.7579 19.8558 37.7684 20.216 37.7684C21.4661 37.7684 22.0275 36.742 22.6526 35.5271C23.4153 34.04 24.104 32.3119 24.104 32.3119C24.104 32.3119 23.2458 36.9829 25.5765 36.9829C26.424 36.9829 27.2821 35.8937 27.6635 35.3386C27.6635 35.3491 27.6635 35.3491 27.6635 35.3491C27.6635 35.3491 27.6847 35.3177 27.7271 35.2444C27.8118 35.1082 27.8648 35.0244 27.8648 35.0244C27.8648 35.0244 27.8648 35.014 27.8648 35.0035C28.2038 34.417 28.9666 33.0869 30.1001 30.8771C31.5621 28.0285 32.9711 24.4677 32.9711 24.4677C32.9711 24.4677 33.0982 25.3369 33.5325 26.7822C33.7868 27.6305 34.3165 28.5626 34.7403 29.4633C34.4012 29.9346 34.1894 30.1964 34.1894 30.1964C34.1894 30.1964 34.1894 30.1964 34.2 30.2069C33.9245 30.5629 33.6279 30.9504 33.2995 31.3275C32.1447 32.689 30.7675 34.2494 30.5768 34.6998C30.3544 35.2339 30.4073 35.6214 30.8311 35.9356C31.1383 36.166 31.6892 36.1974 32.2507 36.166C33.2889 36.0927 34.0199 35.8413 34.3801 35.6842C34.9415 35.4853 35.5984 35.1815 36.2128 34.7312C37.3464 33.9038 38.035 32.7204 37.9714 31.1599C37.9396 30.3011 37.6536 29.4423 37.304 28.6359C37.4099 28.4893 37.5053 28.3427 37.6112 28.1961C39.4016 25.6092 40.7894 22.771 40.7894 22.771C40.7894 22.771 40.9165 23.6403 41.3509 25.0856C41.5627 25.8187 41.9971 26.6146 42.3785 27.3896C40.694 28.7406 39.6558 30.3116 39.285 31.3379C38.6176 33.244 39.1367 34.1028 40.122 34.3018C40.5669 34.3961 41.2025 34.1866 41.6687 33.9876C42.2619 33.7991 42.9611 33.4744 43.6286 32.9927C44.7621 32.1653 45.8533 31.0133 45.7897 29.4528C45.7579 28.7406 45.5672 28.039 45.3024 27.3582C46.7326 26.7717 48.5759 26.4471 50.9278 26.7194C55.9705 27.3058 56.9663 30.4163 56.7756 31.7254C56.5849 33.0346 55.5255 33.7467 55.1759 33.9667C54.8263 34.1866 54.7098 34.2599 54.7416 34.417C54.784 34.6474 54.9535 34.6369 55.2501 34.595C55.6633 34.5217 57.8986 33.5373 57.9939 31.1285C58.1528 28.0494 55.1865 24.6876 49.9425 24.719ZM11.0416 37.6846C9.36781 39.4859 7.03714 40.1667 6.03072 39.5907C4.95014 38.9728 5.3739 36.3126 7.42912 34.4065C8.6792 33.244 10.2895 32.1653 11.3595 31.5055C11.6031 31.3589 11.9633 31.1494 12.3977 30.8876C12.4718 30.8457 12.5142 30.8248 12.5142 30.8248C12.599 30.7724 12.6837 30.72 12.7685 30.6677C13.5206 33.3907 12.8002 35.789 11.0416 37.6846ZM23.2247 29.4947C22.642 30.8981 21.4237 34.4903 20.6821 34.2913C20.0465 34.1238 19.6545 31.4008 20.555 28.7092C21.0105 27.3582 21.9746 25.7454 22.5361 25.117C23.4471 24.1116 24.4536 23.7764 24.6972 24.1849C25.0044 24.719 23.5849 28.615 23.2247 29.4947ZM33.2783 34.2494C33.0346 34.3751 32.8016 34.4589 32.6956 34.3961C32.6215 34.3542 32.8016 34.1866 32.8016 34.1866C32.8016 34.1866 34.0622 32.8461 34.5602 32.2386C34.8462 31.8825 35.1852 31.4636 35.5454 30.9923C35.5454 31.0342 35.5454 31.0866 35.5454 31.1285C35.5454 32.7309 33.9775 33.8096 33.2783 34.2494ZM41.033 32.5005C40.8529 32.3748 40.8847 31.9559 41.4886 30.6467C41.7216 30.1336 42.2725 29.2748 43.2154 28.4474C43.3213 28.7825 43.3955 29.1072 43.3849 29.4109C43.3743 31.4322 41.9123 32.1863 41.033 32.5005Z" fill="#CD6799"/>
</svg>
