<svg width="67" height="41" viewBox="0 0 67 41" fill="none" xmlns="http://www.w3.org/2000/svg">
<path d="M33.5 0C24.5664 0 18.9832 4.55565 16.7496 13.6661C20.1 9.11045 24.0084 7.40272 28.4748 8.5412C31.0234 9.19079 32.8448 11.0772 34.8615 13.1644C38.1457 16.5644 41.9468 20.4996 50.2504 20.4996C59.1832 20.4996 64.7672 15.9439 67 6.83262C63.6504 11.3883 59.742 13.0969 55.2748 11.9584C52.727 11.3088 50.9056 9.42242 48.889 7.3352C45.6047 3.93512 41.8027 0 33.5 0ZM16.7496 20.4996C7.81681 20.4996 2.23277 25.0552 0 34.1665C3.34958 29.6109 7.25799 27.9023 11.7252 29.0416C14.273 29.6921 16.0944 31.5776 18.111 33.6639C21.3953 37.064 25.1973 41 33.5 41C42.4336 41 48.0168 36.4444 50.2504 27.333C46.9 31.8887 42.9916 33.5973 38.5252 32.4579C35.9766 31.8092 34.1552 29.922 32.1386 27.8356C28.8543 24.4356 25.0532 20.4996 16.7496 20.4996Z" fill="#06B6D4"/>
</svg>
