<svg width="100" height="92" viewBox="0 0 100 92" fill="none" xmlns="http://www.w3.org/2000/svg">
<path d="M75.0449 27.6595L51.1384 62.2251C50.885 62.5916 50.5184 62.8661 50.0944 63.007C49.6704 63.1479 49.212 63.1466 48.7888 63.0051C48.3656 62.8628 48.0008 62.587 47.7495 62.2198C47.4983 61.852 47.3744 61.4127 47.3968 60.9689L48.3536 41.8851L32.9074 38.6093C32.5773 38.5394 32.2698 38.3894 32.012 38.1727C31.7542 37.9562 31.5541 37.6795 31.4294 37.3673C31.3048 37.0551 31.2595 36.7171 31.2975 36.3831C31.3354 36.0491 31.4555 35.7295 31.6471 35.4525L55.5538 0.886855C55.8073 0.520167 56.1739 0.245696 56.5979 0.104988C57.0221 -0.0357199 57.4804 -0.0349924 57.9037 0.107171C58.3269 0.249269 58.6918 0.524995 58.9429 0.892543C59.1941 1.26003 59.318 1.69922 59.2955 2.1435L58.3388 21.2275L73.7847 24.503C74.1148 24.5729 74.4224 24.7229 74.6804 24.9395C74.9384 25.1561 75.1382 25.4328 75.2626 25.745C75.3876 26.0571 75.4326 26.3952 75.3949 26.7291C75.3572 27.0631 75.2368 27.3825 75.0449 27.6595Z" fill="#FCC72B"/>
<path d="M50.0096 91.2254C49.3737 91.2261 48.744 91.1017 48.1565 90.8583C47.5691 90.6148 47.0355 90.2576 46.5865 89.8078L23.9975 67.2204C23.0939 66.3121 22.5873 65.0823 22.589 63.8009C22.5907 62.5195 23.1005 61.2904 24.0067 60.3847C24.9128 59.4784 26.1413 58.9684 27.4228 58.9664C28.7043 58.9651 29.9342 59.4711 30.8428 60.3748L50.0096 79.5394L91.7645 37.7865C92.6748 36.8909 93.9019 36.3913 95.1787 36.3965C96.4561 36.4017 97.6793 36.9113 98.5816 37.8142C99.4846 38.7172 99.9946 39.9403 99.9999 41.2173C100.005 42.4942 99.5051 43.7215 98.6094 44.6317L53.4317 89.8078C52.9828 90.2583 52.4494 90.6148 51.8621 90.8583C51.2748 91.1017 50.6452 91.2261 50.0096 91.2254Z" fill="#729B1B"/>
<path d="M49.9901 91.2254C50.626 91.2261 51.2557 91.1017 51.8431 90.8583C52.4306 90.6148 52.9641 90.2576 53.4132 89.8078L76.0021 67.2204C76.9058 66.3121 77.4125 65.0823 77.4105 63.8009C77.4092 62.5195 76.8992 61.2904 75.9929 60.3847C75.0866 59.4784 73.8581 58.9684 72.5767 58.9664C71.2953 58.9651 70.0655 59.4711 69.1566 60.3748L49.9901 79.5394L8.23524 37.7865C7.32497 36.8909 6.09769 36.3913 4.8208 36.3965C3.54384 36.4017 2.32067 36.9113 1.41775 37.8142C0.514806 38.7172 0.00523984 39.9403 4.01847e-05 41.2173C-0.00515947 42.4942 0.494431 43.7215 1.38999 44.6317L46.5679 89.8078C47.0168 90.2583 47.5503 90.6148 48.1376 90.8583C48.7249 91.1017 49.3544 91.2261 49.9901 91.2254Z" fill="#729B1B" fill-opacity="0.5"/>
</svg>
