<svg width="188" height="187" viewBox="0 0 188 187" fill="none" xmlns="http://www.w3.org/2000/svg">
<mask id="mask0_201_502" style="mask-type:luminance" maskUnits="userSpaceOnUse" x="6" y="5" width="176" height="177">
<path d="M6.16235 5.72168H181.713V181.273H6.16235V5.72168Z" fill="white"/>
</mask>
<g mask="url(#mask0_201_502)">
<path d="M181.713 156.891C181.713 170.359 170.8 181.273 157.331 181.273H30.5446C17.0808 181.273 6.16235 170.359 6.16235 156.891V30.1039C6.16235 16.6353 17.0808 5.72168 30.5446 5.72168H157.331C170.8 5.72168 181.713 16.6353 181.713 30.1039V156.891Z" fill="#673AB7"/>
</g>
<path d="M137.973 101.3C134.804 96.9108 130.22 93.8875 124.32 92.2785C124.32 92.2785 129.294 90.4741 133.78 83.7449C136.462 79.4536 137.827 74.2844 137.827 68.2378C137.827 57.7536 134.024 49.7074 126.417 44.1971C118.809 38.6868 110.227 34.9805 95.6462 34.9805H50.0518V152.014H100.913C114.713 151.917 125.1 148.942 132.171 143.237C139.193 137.434 142.704 128.852 142.704 117.392C142.704 111.053 141.143 105.689 137.973 101.3ZM79.3102 54.4864C79.3102 54.4864 99.645 54.4864 100.035 54.4864C107.447 54.4864 113.445 60.484 113.445 67.8963C113.445 75.3085 107.447 81.3066 100.035 81.3066C99.645 81.3066 79.3102 81.3066 79.3102 81.3066V54.4864ZM103.692 132.509H79.3102V103.25H103.692C111.787 103.25 118.322 109.785 118.322 117.88C118.322 125.975 111.787 132.509 103.692 132.509Z" fill="white"/>
</svg>
