<svg width="188" height="187" viewBox="0 0 188 187" fill="none" xmlns="http://www.w3.org/2000/svg">
<mask id="mask0_201_52" style="mask-type:luminance" maskUnits="userSpaceOnUse" x="31" y="39" width="126" height="143">
<path d="M31.5259 39.9248H156.126V181.208H31.5259V39.9248Z" fill="white"/>
</mask>
<g mask="url(#mask0_201_52)">
<path d="M93.7607 181.201L42.9154 167.079L31.5854 39.9307L156.088 39.9287L144.75 167.058L93.7631 181.199L93.7607 181.201Z" fill="#0277BD"/>
</g>
<path d="M135.041 158.965L144.734 50.3276L93.8396 50.3262V170.39L135.041 158.964V158.965Z" fill="#039BE5"/>
<path d="M57.5623 97.4844L58.959 113.075H93.8395V97.4844H57.5623Z" fill="#EBEBEB"/>
<path d="M54.7549 65.918L56.1716 81.514H93.8397V65.918H54.7549Z" fill="#EBEBEB"/>
<path d="M93.8396 137.982L93.7715 138.002L76.4124 133.31L75.3023 120.873H59.6553L61.8391 145.36L93.7667 154.228L93.8396 154.208V137.982Z" fill="#EBEBEB"/>
<mask id="mask1_201_52" style="mask-type:luminance" maskUnits="userSpaceOnUse" x="60" y="5" width="20" height="25">
<path d="M60.8789 5.37695H79.7834V29.1043H60.8789V5.37695Z" fill="white"/>
</mask>
<g mask="url(#mask1_201_52)">
<path d="M60.8884 5.37695H79.7667V13.2755H68.7826V21.1741H79.7667V29.0722H60.8884V5.37695Z" fill="black"/>
</g>
<mask id="mask2_201_52" style="mask-type:luminance" maskUnits="userSpaceOnUse" x="83" y="5" width="20" height="25">
<path d="M83.512 5.37695H102.541V29.4774H83.512V5.37695Z" fill="white"/>
</mask>
<g mask="url(#mask2_201_52)">
<path d="M83.542 5.37695H102.42V12.2456H91.4391V13.619H102.42V29.4157H83.542V22.2046H94.5285V20.8302H83.542V5.37695Z" fill="black"/>
</g>
<mask id="mask3_201_52" style="mask-type:luminance" maskUnits="userSpaceOnUse" x="106" y="5" width="20" height="25">
<path d="M106.149 5.37695H125.178V29.4774H106.149V5.37695Z" fill="white"/>
</mask>
<g mask="url(#mask3_201_52)">
<path d="M106.197 5.37695H125.076V12.2456H114.089V13.619H125.076V29.4157H106.197V22.2046H117.178V20.8302H106.197V5.37695Z" fill="black"/>
</g>
<path d="M130.019 97.4856L132.83 65.918H93.7861V81.514H115.748L114.333 97.4856H93.7861V113.076H112.981L111.17 133.301L93.7861 137.998V154.219L125.739 145.361L125.973 142.725L129.638 101.67L130.019 97.4856Z" fill="white"/>
</svg>
