<svg width="187" height="188" viewBox="0 0 187 188" fill="none" xmlns="http://www.w3.org/2000/svg">
<mask id="mask0_201_547" style="mask-type:luminance" maskUnits="userSpaceOnUse" x="30" y="39" width="127" height="144">
<path d="M30.3372 39.9658H156.519V182.991H30.3372V39.9658Z" fill="white"/>
</mask>
<g mask="url(#mask0_201_547)">
<path d="M156.485 40.0625L144.998 168.676L93.3629 182.981L41.871 168.696L30.3967 40.0625L156.483 40.0605H156.487L156.485 40.0625Z" fill="#E44D26"/>
</g>
<path d="M93.4424 172.049L135.168 160.489L144.984 50.5835L93.4424 50.582V172.049Z" fill="#F16529"/>
<path d="M71.1116 82.1361H93.4422V66.3584H53.8604L54.2378 70.5919L58.1177 114.067H93.4422V98.2943H72.554L71.1116 82.1361Z" fill="#EBEBEB"/>
<path d="M74.6697 121.955H58.8235L61.035 146.728L93.3683 155.699L93.4426 155.679V139.264L93.3736 139.284L75.7934 134.537L74.6697 121.955Z" fill="#EBEBEB"/>
<mask id="mask1_201_547" style="mask-type:luminance" maskUnits="userSpaceOnUse" x="42" y="5" width="24" height="25">
<path d="M42.0312 5.10938H65.5375V29.1472H42.0312V5.10938Z" fill="white"/>
</mask>
<g mask="url(#mask1_201_547)">
<path d="M42.1284 5.10938H50.1504V13.0303H57.4879V5.10938H65.5103V29.0961H57.4883V21.064H50.1504V29.0961H42.1284V5.10938Z" fill="black"/>
</g>
<mask id="mask2_201_547" style="mask-type:luminance" maskUnits="userSpaceOnUse" x="68" y="5" width="24" height="25">
<path d="M68.8962 5.10938H91.1588V29.1472H68.8962V5.10938Z" fill="white"/>
</mask>
<g mask="url(#mask2_201_547)">
<path d="M76.061 13.0638H68.999V5.10938H91.1498V13.0638H84.082V29.0961H76.0615V13.0638H76.061Z" fill="black"/>
</g>
<mask id="mask3_201_547" style="mask-type:luminance" maskUnits="userSpaceOnUse" x="94" y="5" width="28" height="25">
<path d="M94.6404 5.10938H121.753V29.1472H94.6404V5.10938Z" fill="white"/>
</mask>
<g mask="url(#mask3_201_547)">
<path d="M94.6646 5.10938H103.027L108.172 13.5375L113.313 5.10938H121.681V29.0961H113.693V17.207L108.172 25.7352H108.034L102.513 17.207V29.0961H94.6646V5.10938Z" fill="black"/>
</g>
<mask id="mask4_201_547" style="mask-type:luminance" maskUnits="userSpaceOnUse" x="125" y="5" width="21" height="25">
<path d="M125.609 5.10938H145.011V29.1472H125.609V5.10938Z" fill="white"/>
</mask>
<g mask="url(#mask4_201_547)">
<path d="M125.673 5.10938H133.695V21.1674H144.979V29.0961H125.673V5.10938Z" fill="black"/>
</g>
<path d="M93.3882 114.065H112.828L110.994 134.525L93.3882 139.277V155.688L125.747 146.727L125.985 144.059L129.697 102.525L130.082 98.292H93.3882V114.065Z" fill="white"/>
<path d="M93.3882 82.0963V82.1361H131.515L131.832 78.5891L132.553 70.5919L132.929 66.3584H93.3882V82.0963Z" fill="white"/>
</svg>
