<svg width="187" height="187" viewBox="0 0 187 187" fill="none" xmlns="http://www.w3.org/2000/svg">
<mask id="mask0_201_469" style="mask-type:luminance" maskUnits="userSpaceOnUse" x="3" y="4" width="180" height="179">
<path d="M3.86694 4.09863H182.682V182.914H3.86694V4.09863Z" fill="white"/>
</mask>
<g mask="url(#mask0_201_469)">
<path d="M30.689 4.09863H155.86C156.299 4.09863 156.737 4.10981 157.176 4.13118C157.614 4.15256 158.052 4.18511 158.489 4.22786C158.926 4.2711 159.361 4.32454 159.796 4.38916C160.23 4.45377 160.662 4.52859 161.093 4.6141C161.523 4.70009 161.951 4.79628 162.377 4.90268C162.803 5.00956 163.226 5.12664 163.646 5.25393C164.066 5.38122 164.483 5.51871 164.896 5.66688C165.309 5.81458 165.719 5.97247 166.125 6.14057C166.53 6.30866 166.931 6.48647 167.328 6.674C167.725 6.86202 168.117 7.05927 168.504 7.26623C168.891 7.47271 169.273 7.68938 169.649 7.91481C170.026 8.14072 170.396 8.37537 170.762 8.61926C171.127 8.86314 171.485 9.11577 171.838 9.37715C172.191 9.63901 172.537 9.90864 172.876 10.187C173.215 10.4659 173.548 10.7525 173.873 11.0469C174.198 11.3418 174.516 11.6445 174.826 11.9549C175.137 12.2654 175.439 12.5831 175.734 12.9086C176.029 13.2336 176.315 13.566 176.594 13.9051C176.873 14.2447 177.142 14.5906 177.404 14.9433C177.665 15.2955 177.918 15.6545 178.162 16.0194C178.406 16.3847 178.64 16.7554 178.866 17.1319C179.092 17.5084 179.308 17.8903 179.515 18.277C179.722 18.6642 179.919 19.0563 180.107 19.4532C180.295 19.8501 180.473 20.2514 180.641 20.6566C180.809 21.0623 180.967 21.4718 181.114 21.8853C181.262 22.2982 181.4 22.7151 181.527 23.1353C181.655 23.5551 181.772 23.9782 181.879 24.4038C181.985 24.8299 182.081 25.2579 182.167 25.6883C182.253 26.1188 182.327 26.5512 182.392 26.9855C182.456 27.4198 182.51 27.8551 182.553 28.2924C182.596 28.7291 182.629 29.1668 182.65 29.6051C182.671 30.0438 182.682 30.4825 182.682 30.9212V156.092C182.682 156.531 182.671 156.97 182.65 157.408C182.629 157.847 182.596 158.284 182.553 158.721C182.51 159.158 182.456 159.594 182.392 160.028C182.327 160.462 182.253 160.895 182.167 161.325C182.081 161.755 181.985 162.184 181.879 162.61C181.772 163.035 181.655 163.458 181.527 163.878C181.4 164.298 181.262 164.715 181.114 165.128C180.967 165.542 180.809 165.951 180.641 166.357C180.473 166.762 180.295 167.163 180.107 167.56C179.919 167.957 179.722 168.349 179.515 168.736C179.308 169.123 179.092 169.505 178.866 169.881C178.64 170.258 178.406 170.629 178.162 170.994C177.918 171.359 177.665 171.717 177.404 172.07C177.142 172.423 176.873 172.769 176.594 173.108C176.315 173.447 176.029 173.78 175.734 174.105C175.439 174.43 175.137 174.748 174.826 175.058C174.516 175.369 174.198 175.672 173.873 175.966C173.548 176.261 173.215 176.547 172.876 176.826C172.537 177.105 172.191 177.374 171.838 177.636C171.485 177.898 171.127 178.15 170.762 178.394C170.396 178.638 170.026 178.873 169.649 179.099C169.273 179.324 168.891 179.54 168.504 179.747C168.117 179.954 167.725 180.151 167.328 180.339C166.931 180.527 166.53 180.705 166.125 180.873C165.719 181.041 165.309 181.199 164.896 181.346C164.483 181.494 164.066 181.632 163.646 181.759C163.226 181.887 162.803 182.004 162.377 182.111C161.951 182.217 161.523 182.313 161.093 182.399C160.662 182.485 160.23 182.56 159.796 182.624C159.361 182.688 158.926 182.742 158.489 182.786C158.052 182.828 157.614 182.861 157.176 182.882C156.737 182.904 156.299 182.914 155.86 182.914H30.689C30.2503 182.914 29.8116 182.904 29.3729 182.882C28.9347 182.861 28.4969 182.828 28.0602 182.786C27.6229 182.742 27.1876 182.688 26.7533 182.624C26.319 182.56 25.8866 182.485 25.4561 182.399C25.0257 182.313 24.5977 182.217 24.1716 182.111C23.746 182.004 23.3229 181.887 22.9031 181.759C22.4829 181.632 22.066 181.494 21.6531 181.346C21.2397 181.199 20.8301 181.041 20.4244 180.873C20.0193 180.705 19.618 180.527 19.221 180.339C18.8241 180.151 18.4321 179.954 18.0448 179.747C17.6581 179.54 17.2763 179.324 16.8998 179.099C16.5232 178.873 16.1525 178.638 15.7872 178.394C15.4224 178.15 15.0638 177.898 14.7111 177.636C14.3584 177.374 14.0125 177.105 13.6729 176.826C13.3338 176.547 13.0015 176.261 12.6765 175.966C12.3509 175.672 12.0332 175.369 11.7228 175.058C11.4123 174.748 11.1097 174.43 10.8148 174.105C10.5204 173.78 10.2337 173.447 9.95533 173.108C9.67647 172.769 9.40683 172.423 9.14497 172.07C8.8836 171.717 8.63097 171.359 8.38708 170.994C8.1432 170.629 7.90854 170.258 7.68263 169.881C7.45721 169.505 7.24102 169.123 7.03405 168.736C6.82709 168.349 6.62984 167.957 6.44183 167.56C6.2543 167.163 6.07649 166.762 5.90839 166.357C5.74029 165.951 5.5824 165.542 5.43471 165.128C5.28653 164.715 5.14904 164.298 5.02176 163.878C4.89447 163.458 4.77738 163.035 4.6705 162.61C4.56411 162.184 4.46791 161.755 4.38192 161.325C4.29641 160.895 4.2216 160.462 4.15698 160.028C4.09237 159.594 4.03893 159.158 3.99569 158.721C3.95293 158.284 3.92038 157.847 3.89901 157.408C3.87763 156.97 3.86694 156.531 3.86694 156.092V30.9212C3.86694 30.4825 3.87763 30.0438 3.89901 29.6051C3.92038 29.1668 3.95293 28.7291 3.99569 28.2924C4.03893 27.8551 4.09237 27.4198 4.15698 26.9855C4.2216 26.5512 4.29641 26.1188 4.38192 25.6883C4.46791 25.2579 4.56411 24.8299 4.6705 24.4038C4.77738 23.9782 4.89447 23.5551 5.02176 23.1353C5.14904 22.7151 5.28653 22.2982 5.43471 21.8853C5.5824 21.4718 5.74029 21.0623 5.90839 20.6566C6.07649 20.2514 6.2543 19.8501 6.44183 19.4532C6.62984 19.0563 6.82709 18.6642 7.03405 18.277C7.24102 17.8903 7.45721 17.5084 7.68263 17.1319C7.90854 16.7554 8.1432 16.3847 8.38708 16.0194C8.63097 15.6545 8.8836 15.2955 9.14497 14.9433C9.40683 14.5906 9.67647 14.2447 9.95533 13.9051C10.2337 13.566 10.5204 13.2336 10.8148 12.9086C11.1097 12.5831 11.4123 12.2654 11.7228 11.9549C12.0332 11.6445 12.3509 11.3418 12.6765 11.0469C13.0015 10.7525 13.3338 10.4659 13.6729 10.187C14.0125 9.90864 14.3584 9.63901 14.7111 9.37715C15.0638 9.11577 15.4224 8.86314 15.7872 8.61926C16.1525 8.37537 16.5232 8.14072 16.8998 7.91481C17.2763 7.68938 17.6581 7.47271 18.0448 7.26623C18.4321 7.05927 18.8241 6.86202 19.221 6.674C19.618 6.48647 20.0193 6.30866 20.4244 6.14057C20.8301 5.97247 21.2397 5.81458 21.6531 5.66688C22.066 5.51871 22.4829 5.38122 22.9031 5.25393C23.3229 5.12664 23.746 5.00956 24.1716 4.90268C24.5977 4.79628 25.0257 4.70009 25.4561 4.6141C25.8866 4.52859 26.319 4.45377 26.7533 4.38916C27.1876 4.32454 27.6229 4.2711 28.0602 4.22786C28.4969 4.18511 28.9347 4.15256 29.3729 4.13118C29.8116 4.10981 30.2503 4.09863 30.689 4.09863Z" fill="#21759B"/>
<path d="M159.632 93.5057C159.632 94.592 159.606 95.6773 159.552 96.7617C159.499 97.8465 159.419 98.9294 159.313 100.01C159.206 101.091 159.073 102.168 158.914 103.243C158.755 104.317 158.569 105.387 158.357 106.452C158.145 107.517 157.907 108.576 157.643 109.629C157.38 110.683 157.09 111.729 156.775 112.768C156.459 113.807 156.119 114.838 155.753 115.861C155.387 116.884 154.997 117.897 154.581 118.9C154.165 119.903 153.726 120.896 153.261 121.877C152.797 122.859 152.309 123.829 151.797 124.787C151.285 125.744 150.75 126.689 150.191 127.62C149.633 128.552 149.053 129.469 148.449 130.372C147.846 131.275 147.22 132.162 146.574 133.035C145.927 133.907 145.259 134.763 144.57 135.603C143.881 136.442 143.172 137.264 142.442 138.069C141.713 138.873 140.964 139.66 140.197 140.428C139.429 141.195 138.642 141.944 137.838 142.673C137.033 143.403 136.211 144.112 135.372 144.801C134.532 145.49 133.676 146.158 132.804 146.805C131.932 147.451 131.044 148.077 130.141 148.68C129.238 149.284 128.321 149.864 127.39 150.422C126.458 150.981 125.513 151.516 124.556 152.028C123.598 152.54 122.628 153.028 121.647 153.492C120.665 153.957 119.672 154.396 118.669 154.812C117.666 155.228 116.653 155.618 115.63 155.984C114.607 156.35 113.576 156.69 112.537 157.006C111.498 157.321 110.452 157.611 109.398 157.874C108.345 158.138 107.286 158.376 106.221 158.588C105.156 158.8 104.086 158.985 103.012 159.145C101.937 159.304 100.86 159.437 99.779 159.544C98.6985 159.65 97.6156 159.73 96.5307 159.783C95.4464 159.837 94.361 159.863 93.2747 159.863C92.1889 159.863 91.1035 159.837 90.0192 159.783C88.9343 159.73 87.8514 159.65 86.7709 159.544C85.69 159.437 84.6124 159.304 83.5382 159.145C82.4641 158.985 81.3943 158.8 80.3293 158.588C79.2639 158.376 78.2048 158.138 77.1515 157.874C76.0978 157.611 75.0518 157.321 74.0126 157.006C72.973 156.69 71.9425 156.35 70.9198 155.984C69.8972 155.618 68.8842 155.228 67.881 154.812C66.8778 154.396 65.8852 153.957 64.9034 153.492C63.922 153.028 62.9523 152.54 61.9942 152.028C61.0367 151.516 60.0917 150.981 59.1604 150.422C58.2291 149.864 57.3118 149.284 56.4087 148.68C55.506 148.077 54.6184 147.451 53.7458 146.805C52.8738 146.158 52.0178 145.49 51.1782 144.801C50.3387 144.112 49.5167 143.403 48.7122 142.673C47.9072 141.944 47.1211 141.195 46.353 140.428C45.5854 139.66 44.8367 138.873 44.1075 138.069C43.3783 137.264 42.669 136.442 41.9801 135.603C41.2912 134.763 40.6232 133.907 39.976 133.035C39.3294 132.162 38.7041 131.275 38.1007 130.372C37.4973 129.469 36.9168 128.552 36.3586 127.62C35.7999 126.689 35.265 125.744 34.7529 124.787C34.2408 123.829 33.7531 122.859 33.2886 121.877C32.8242 120.896 32.3845 119.903 31.9686 118.9C31.5532 117.897 31.1626 116.884 30.7968 115.861C30.4305 114.838 30.0899 113.807 29.7751 112.768C29.4598 111.729 29.1703 110.683 28.9065 109.629C28.6422 108.576 28.4046 107.517 28.1928 106.452C27.981 105.387 27.7954 104.317 27.636 103.243C27.4767 102.168 27.3435 101.091 27.2372 100.01C27.1308 98.9294 27.0506 97.8465 26.9976 96.7617C26.9442 95.6773 26.9175 94.592 26.9175 93.5057C26.9175 92.4198 26.9442 91.3345 26.9976 90.2496C27.0506 89.1653 27.1308 88.0824 27.2372 87.0019C27.3435 85.9209 27.4767 84.8434 27.636 83.7692C27.7954 82.695 27.981 81.6252 28.1928 80.5603C28.4046 79.4949 28.6422 78.4358 28.9065 77.3825C29.1703 76.3287 29.4598 75.2828 29.7751 74.2436C30.0899 73.2039 30.4305 72.1735 30.7968 71.1508C31.1626 70.1281 31.5532 69.1152 31.9686 68.1119C32.3845 67.1087 32.8242 66.1162 33.2886 65.1343C33.7531 64.1529 34.2408 63.1832 34.7529 62.2252C35.265 61.2676 35.7999 60.3227 36.3586 59.3913C36.9168 58.46 37.4973 57.5428 38.1007 56.6396C38.7041 55.737 39.3294 54.8493 39.976 53.9768C40.6232 53.1047 41.2912 52.2487 41.9801 51.4092C42.669 50.5697 43.3783 49.7477 44.1075 48.9431C44.8367 48.1381 45.5854 47.3521 46.353 46.584C47.1211 45.8164 47.9072 45.0677 48.7122 44.3385C49.5167 43.6092 50.3387 42.8999 51.1782 42.211C52.0178 41.5221 52.8738 40.8541 53.7458 40.207C54.6184 39.5604 55.506 38.9351 56.4087 38.3317C57.3118 37.7283 58.2291 37.1477 59.1604 36.5895C60.0917 36.0308 61.0367 35.4959 61.9942 34.9839C62.9523 34.4718 63.922 33.984 64.9034 33.5196C65.8852 33.0551 66.8778 32.6155 67.881 32.1996C68.8842 31.7842 69.8972 31.3936 70.9198 31.0278C71.9425 30.6615 72.973 30.3209 74.0126 30.0061C75.0518 29.6908 76.0978 29.4012 77.1515 29.1374C78.2048 28.8731 79.2639 28.6356 80.3293 28.4237C81.3943 28.2119 82.4641 28.0263 83.5382 27.867C84.6124 27.7076 85.69 27.5745 86.7709 27.4681C87.8514 27.3617 88.9343 27.2816 90.0192 27.2286C91.1035 27.1752 92.1889 27.1484 93.2747 27.1484C94.361 27.1484 95.4464 27.1752 96.5307 27.2286C97.6156 27.2816 98.6985 27.3617 99.779 27.4681C100.86 27.5745 101.937 27.7076 103.012 27.867C104.086 28.0263 105.156 28.2119 106.221 28.4237C107.286 28.6356 108.345 28.8731 109.398 29.1374C110.452 29.4012 111.498 29.6908 112.537 30.0061C113.576 30.3209 114.607 30.6615 115.63 31.0278C116.653 31.3936 117.666 31.7842 118.669 32.1996C119.672 32.6155 120.665 33.0551 121.647 33.5196C122.628 33.984 123.598 34.4718 124.556 34.9839C125.513 35.4959 126.458 36.0308 127.39 36.5895C128.321 37.1477 129.238 37.7283 130.141 38.3317C131.044 38.9351 131.932 39.5604 132.804 40.207C133.676 40.8541 134.532 41.5221 135.372 42.211C136.211 42.8999 137.033 43.6092 137.838 44.3385C138.642 45.0677 139.429 45.8164 140.197 46.584C140.964 47.3521 141.713 48.1381 142.442 48.9431C143.172 49.7477 143.881 50.5697 144.57 51.4092C145.259 52.2487 145.927 53.1047 146.574 53.9768C147.22 54.8493 147.846 55.737 148.449 56.6396C149.053 57.5428 149.633 58.46 150.191 59.3913C150.75 60.3227 151.285 61.2676 151.797 62.2252C152.309 63.1832 152.797 64.1529 153.261 65.1343C153.726 66.1162 154.165 67.1087 154.581 68.1119C154.997 69.1152 155.387 70.1281 155.753 71.1508C156.119 72.1735 156.459 73.2039 156.775 74.2436C157.09 75.2828 157.38 76.3287 157.643 77.3825C157.907 78.4358 158.145 79.4949 158.357 80.5603C158.569 81.6252 158.755 82.695 158.914 83.7692C159.073 84.8434 159.206 85.9209 159.313 87.0019C159.419 88.0824 159.499 89.1653 159.552 90.2501C159.606 91.3345 159.632 92.4198 159.632 93.5057Z" stroke="white" stroke-width="6.98498"/>
</g>
<path d="M75.1139 156.372L94.6718 99.0952L114.928 154.626L125.056 149.038L144.614 92.4598C148.107 83.3792 149.154 76.0451 149.154 69.7585C149.504 58.2332 144.614 48.1052 136.232 47.0572C128.549 46.3586 124.358 53.6932 124.707 58.2332C125.406 68.7106 135.883 74.6479 135.883 88.9672C135.883 99.4445 129.248 115.859 124.707 131.576L102.006 63.8212C105.848 63.4719 109.34 63.4719 109.34 63.4719C112.833 63.1226 112.484 57.8839 108.991 58.2332C97.4658 59.2811 86.9885 58.9318 75.4632 58.2332C71.9706 57.8839 71.6212 63.1226 75.1139 63.4719C75.1139 63.4719 78.2572 63.4719 81.7498 63.8212L91.5285 90.7132L77.5585 132.274L54.8573 63.8212C58.6992 63.4719 61.8425 63.4719 61.8425 63.4719C65.3346 63.1226 64.9858 57.8839 61.4932 58.2332C51.0158 58.9318 40.8873 59.6305 38.4426 57.8839L35.2993 66.6152L66.0333 151.483L75.1139 156.372Z" fill="white"/>
</svg>
