<svg width="42" height="48" viewBox="0 0 42 48" fill="none" xmlns="http://www.w3.org/2000/svg">
<path d="M41.4747 0.6521L37.6962 42.9803L20.7119 47.6889L3.77445 42.9869L0 0.6521H41.4747Z" fill="#264DE4"/>
<path d="M34.4614 40.285L37.6904 4.11359H20.7373V44.0898L34.4614 40.285Z" fill="#2965F1"/>
<path d="M8.65283 19.815L9.11819 25.0071H20.7373V19.815H8.65283Z" fill="#EBEBEB"/>
<path d="M20.7373 9.30579H20.7194H7.71777L8.18976 14.498H20.7373V9.30579Z" fill="#EBEBEB"/>
<path d="M20.7373 38.7016V33.2996L20.7146 33.3056L14.932 31.7442L14.5623 27.6032H11.7525H9.35019L10.0776 35.7557L20.7134 38.7082L20.7373 38.7016Z" fill="#EBEBEB"/>
<path d="M27.113 25.0071L26.5103 31.7409L20.7194 33.3039V38.7058L31.3637 35.7557L31.4418 34.8785L32.6619 21.2092L32.7886 19.8149L33.7259 9.30579H20.7194V14.498H28.0357L27.5633 19.8149H20.7194V25.0071H27.113Z" fill="white"/>
</svg>
