<svg width="41" height="43" viewBox="0 0 41 43" fill="none" xmlns="http://www.w3.org/2000/svg">
<path d="M1.50097 27.2185C1.00481 25.4116 0.752213 23.5348 0.752213 21.6446C0.752213 13.0157 6.17156 5.12571 14.2385 2.01435L15.2962 4.75172C8.35237 7.43051 3.68854 14.2187 3.68854 21.6446C3.68854 23.2735 3.90503 24.8866 4.33128 26.4411L1.50097 27.2185Z" fill="#69D3A7"/>
<path d="M37.9704 13.3086C34.8312 7.28185 28.6518 3.5374 21.8477 3.5374C19.4369 3.5374 17.0937 4.00151 14.8881 4.91396L13.7627 2.20362C16.3269 1.14247 19.0467 0.601761 21.8477 0.601761C29.7523 0.601761 36.9285 4.95001 40.5752 11.9523L37.9704 13.3086Z" fill="url(#paint0_linear_103_161)"/>
<path d="M15.5489 17.3031C17.2516 17.3031 18.6386 18.2111 19.3513 19.7949L19.4076 19.9189L22.2672 18.9478L22.2064 18.8014C21.099 16.1045 18.5484 14.4283 15.5489 14.4283C13.4402 14.4283 11.7263 15.1042 10.31 16.492C8.90269 17.8709 8.19006 19.6057 8.19006 21.6491C8.19006 23.6745 8.90269 25.4003 10.31 26.7792C11.7263 28.167 13.4402 28.8429 15.5489 28.8429C18.5484 28.8429 21.099 27.1667 22.2064 24.4721L22.2672 24.3257L19.4031 23.3523L19.349 23.4808C18.7107 25.0376 17.29 25.9681 15.5489 25.9681C14.3626 25.9681 13.3613 25.5536 12.5674 24.7379C11.7646 23.9111 11.3587 22.8725 11.3587 21.6514C11.3587 20.4212 11.7556 19.4029 12.5674 18.5377C13.359 17.7177 14.3626 17.3031 15.5489 17.3031Z" fill="white"/>
<path d="M33.4599 14.6942L29.3847 25.006L25.2825 14.6942H21.9267L27.6797 28.7685L23.5865 38.6951L26.5206 39.2787L36.6308 14.6942H33.4599Z" fill="white"/>
<path d="M24.1115 37.4155L23.3966 39.1458C23.2545 39.4883 22.9297 39.7202 22.5644 39.736C22.3231 39.7451 22.0796 39.7518 21.8337 39.7518C13.4194 39.7473 5.97488 33.8152 4.13009 25.6414L1.26593 26.288C2.30109 30.8728 4.89913 35.0341 8.58193 38.0081C12.3076 41.0157 17.0007 42.6762 21.8022 42.6852C21.8089 42.6852 21.845 42.6852 21.845 42.6852C22.1269 42.6852 22.4065 42.6784 22.6862 42.6672C24.1927 42.6041 25.5391 41.6601 26.1141 40.261L27.0478 37.999L24.1115 37.4155Z" fill="url(#paint1_linear_103_161)"/>
<defs>
<linearGradient id="paint0_linear_103_161" x1="19.6527" y1="-0.756674" x2="35.6662" y2="16.3588" gradientUnits="userSpaceOnUse">
<stop offset="0.0939" stop-color="#58D09E"/>
<stop offset="0.9883" stop-color="#58D09E" stop-opacity="0"/>
</linearGradient>
<linearGradient id="paint1_linear_103_161" x1="0.527406" y1="31.2188" x2="31.1207" y2="39.3617" gradientUnits="userSpaceOnUse">
<stop offset="0.0774" stop-color="#58D09E"/>
<stop offset="0.7617" stop-color="#1B1E2E"/>
</linearGradient>
</defs>
</svg>
