<svg width="42" height="42" viewBox="0 0 42 42" fill="none" xmlns="http://www.w3.org/2000/svg">
<path d="M14.0001 41C17.3121 41 20.0001 37.864 20.0001 34V27H14.0001C10.6881 27 8.00006 30.136 8.00006 34C8.00006 37.864 10.6881 41 14.0001 41Z" fill="#0ACF83"/>
<path d="M8.00006 21C8.00006 17.688 10.6881 15 14.0001 15H20.0001V27H14.0001C10.6881 27 8.00006 24.312 8.00006 21Z" fill="#A259FF"/>
<path d="M8.00006 8C8.00006 4.136 10.6881 1 14.0001 1H20.0001V15H14.0001C10.6881 15 8.00006 11.864 8.00006 8Z" fill="#F24E1E"/>
<path d="M20.0001 1H27.0001C30.8641 1 34.0001 4.136 34.0001 8C34.0001 11.864 30.8641 15 27.0001 15H20.0001V1Z" fill="#FF7262"/>
<path d="M34.0001 21C34.0001 24.312 30.8641 27 27.0001 27C23.1361 27 20.0001 24.312 20.0001 21C20.0001 17.688 23.1361 15 27.0001 15C30.8641 15 34.0001 17.688 34.0001 21Z" fill="#1ABCFE"/>
</svg>
