<svg width="47" height="47" viewBox="0 0 47 47" fill="none" xmlns="http://www.w3.org/2000/svg">
<path d="M46.1137 21.4063L25.593 0.886361C24.412 -0.295454 22.4952 -0.295454 21.3127 0.886361L17.0515 5.14765L22.457 10.5533C23.7132 10.1288 25.1537 10.4136 26.155 11.4149C27.1611 12.4227 27.4438 13.8755 27.0091 15.1357L32.2186 20.3455C33.4789 19.9112 34.9332 20.1922 35.9398 21.2005C37.3467 22.6068 37.3467 24.8862 35.9398 26.2935C34.5326 27.7009 32.2533 27.7009 30.8453 26.2935C29.787 25.2341 29.5256 23.6799 30.0613 22.3762L25.2031 17.5179L25.2025 30.303C25.5547 30.4772 25.8764 30.7072 26.155 30.9842C27.5619 32.3905 27.5619 34.6701 26.155 36.0784C24.7477 37.4852 22.4673 37.4852 21.0621 36.0784C19.6552 34.6701 19.6552 32.3907 21.0621 30.9844C21.3993 30.647 21.7999 30.3799 22.241 30.1984V17.2941C21.7993 17.1138 21.3984 16.8465 21.0621 16.5081C19.9962 15.4436 19.7399 13.8795 20.286 12.5707L14.9574 7.24139L0.88676 21.3114C-0.295586 22.4943 -0.295586 24.4112 0.88676 25.5932L21.4078 46.1135C22.5892 47.2955 24.5056 47.2955 25.6885 46.1135L46.1135 25.6885C47.2955 24.5061 47.2957 22.5881 46.1137 21.4063Z" fill="#DE4C36"/>
</svg>
