<svg width="40" height="45" viewBox="0 0 40 45" fill="none" xmlns="http://www.w3.org/2000/svg">
<path d="M37.3297 22.256C37.3297 19.9952 35.4969 18.1623 33.2361 18.1623C33.0905 18.1623 32.9471 18.1701 32.8057 18.1851L38.4283 1.60158H14.5339L20.1488 18.1706C20.0659 18.1654 19.9829 18.1627 19.8999 18.1625C17.6391 18.1625 15.8063 19.995 15.8063 22.2561C15.8063 24.0836 17.004 25.6308 18.6569 26.1572C17.7839 27.6694 16.6853 29.0315 15.438 30.2083C13.742 31.8082 11.8009 33.0215 9.70159 33.7691C7.20207 32.485 6.02181 29.6294 7.08675 27.1257C7.20706 26.8429 7.32985 26.5563 7.44719 26.271C9.25794 25.8483 10.6074 24.2251 10.6074 22.2854C10.6074 20.0245 8.77455 18.1918 6.51361 18.1918C4.25266 18.1918 2.41994 20.0245 2.41994 22.2854C2.41994 23.6719 3.10965 24.8965 4.16415 25.637C3.15094 27.944 1.66151 30.3584 1.19745 33.1566C0.641289 36.5101 1.19558 40.0699 4.09605 42.0803C10.851 46.7621 18.1834 39.1779 25.9145 37.2714C28.7163 36.5806 31.792 36.6918 34.2605 35.2622C36.1143 34.1886 37.3364 32.4091 37.6832 30.4115C38.026 28.4381 37.5264 26.4732 36.3776 24.88C36.9939 24.1447 37.3311 23.2155 37.3297 22.256Z" fill="#99425B"/>
<path d="M36.6981 30.2404C36.3971 31.9748 35.3259 33.4896 33.7595 34.397C32.2992 35.2427 30.5494 35.4952 28.6966 35.7623C27.7041 35.9053 26.6778 36.0535 25.6752 36.3007C23.0242 36.9544 20.4564 38.2299 17.9734 39.4633C13.0039 41.9316 8.71237 44.0631 4.66576 41.2584C1.70155 39.2041 1.83837 35.4031 2.18369 33.3203C2.50377 31.3905 3.3691 29.6132 4.20575 27.8946C4.34829 27.6025 4.48968 27.3098 4.62992 27.0166C5.05167 27.1852 5.49421 27.2962 5.9456 27.3467C5.09383 30.1577 6.43335 33.2141 9.24469 34.6584L9.62959 34.8561L10.0369 34.711C12.2595 33.9194 14.3076 32.6494 16.1241 30.9354C17.2983 29.8276 18.308 28.602 19.1377 27.2924C19.39 27.3305 19.6448 27.3496 19.8999 27.3496C22.4803 27.3496 24.6171 25.4206 24.9477 22.9292C26.004 22.8905 27.1258 22.8902 28.1881 22.9289C28.5184 25.4206 30.6555 27.3498 33.2359 27.3498C34.3149 27.3498 35.3156 27.0116 36.1401 26.4372C36.7125 27.6089 36.9261 28.9272 36.6981 30.2404ZM6.51376 19.1916C8.21979 19.1916 9.60762 20.5796 9.60762 22.2856C9.60762 22.8983 9.42779 23.4697 9.11909 23.9509C8.60485 24.753 7.73064 25.3028 6.72631 25.3713C6.65603 25.376 6.58513 25.3794 6.51376 25.3794C6.13353 25.3794 5.76936 25.3101 5.43261 25.1842C4.75441 24.9292 4.18647 24.4454 3.82677 23.8165C3.55968 23.3505 3.41934 22.8227 3.41974 22.2856C3.41974 20.5796 4.80772 19.1916 6.51376 19.1916ZM16.8062 22.2561C16.8062 20.7061 17.952 19.4191 19.4408 19.1966C19.5907 19.174 19.7441 19.1623 19.9001 19.1623C20.8919 19.1623 21.775 19.6321 22.3413 20.3601C22.4832 20.5417 22.6043 20.7385 22.7025 20.9468C22.8948 21.3565 22.9943 21.8036 22.9939 22.2561C22.9939 22.5034 22.964 22.7439 22.909 22.9745C22.6075 24.2367 21.5312 25.2016 20.2122 25.3344C20.1097 25.3447 20.0056 25.35 19.9001 25.35C19.305 25.3505 18.7225 25.1783 18.2233 24.8543C17.3716 24.3025 16.8062 23.3443 16.8062 22.2561ZM29.7191 18.577C29.0458 19.2196 28.5613 20.0343 28.318 20.9327C27.1519 20.8897 25.9845 20.8897 24.8184 20.9327C24.5566 19.9615 24.014 19.1048 23.2839 18.454L26.4855 11.9805L29.7191 18.577ZM15.9284 2.60169H37.0336L32.0488 17.3035C31.8343 17.3549 31.6234 17.4202 31.4175 17.4991L26.4933 7.45379L21.555 17.4391C21.3397 17.3652 21.1197 17.3059 20.8965 17.2616L15.9284 2.60169ZM36.3298 22.2563C36.3298 22.5664 36.2835 22.8659 36.1982 23.1487C35.996 23.8146 35.576 24.3933 35.0057 24.792C34.4873 25.1558 33.8692 25.3507 33.2359 25.3501C31.8074 25.3501 30.6024 24.3767 30.248 23.0583C30.1776 22.7968 30.142 22.5271 30.142 22.2563C30.142 21.8334 30.2274 21.4301 30.3817 21.0626C30.4613 20.8746 30.5593 20.695 30.6744 20.5263C31.2311 19.7044 32.1706 19.1624 33.2359 19.1624C33.3336 19.1624 33.4299 19.1674 33.5254 19.1765C35.0962 19.3228 36.3299 20.6478 36.3299 22.2563H36.3298ZM38.3295 22.2563C38.3295 19.7695 36.5378 17.6947 34.1779 17.2515L39.823 0.601761H13.1394L18.7932 17.2851C16.5153 17.7921 14.8066 19.8277 14.8066 22.2561C14.8066 24.0797 15.7703 25.6813 17.2145 26.5814C16.5198 27.6164 15.6961 28.5903 14.7521 29.4811C13.2548 30.8934 11.587 31.9645 9.78885 32.6694C7.97763 31.5316 7.21204 29.386 8.00708 27.517L8.06942 27.3705L8.18629 27.0956C10.1756 26.4017 11.6072 24.5084 11.6072 22.2856C11.6072 19.4769 9.32229 17.1919 6.51376 17.1919C3.70522 17.1919 1.41997 19.4769 1.41997 22.2856C1.41997 23.7032 2.00278 24.9869 2.94056 25.9113C2.76566 26.2819 2.58811 26.6512 2.40793 27.0192C1.5504 28.7803 0.578639 30.7763 0.211035 32.993C-0.518875 37.3952 0.658581 40.9144 3.52664 42.902C5.26696 44.1081 7.03439 44.5824 8.81288 44.5824C12.1617 44.5824 15.5494 42.8999 18.8629 41.2541C21.2491 40.069 23.7167 38.8434 26.154 38.2422C27.061 38.0186 27.9941 37.8839 28.982 37.7415C30.9413 37.4588 32.9671 37.1666 34.7616 36.1274C36.8418 34.9225 38.2656 32.9014 38.6683 30.5826C39.0139 28.5919 38.598 26.598 37.5836 24.907C38.0724 24.1093 38.3306 23.1917 38.3295 22.2561V22.2563Z" fill="white"/>
</svg>
