<svg width="40" height="40" viewBox="0 0 40 40" fill="none" xmlns="http://www.w3.org/2000/svg">
<path d="M35.8291 7.77577C33.4113 4.64484 30.1192 2.30125 26.3694 1.0414C22.6195 -0.218457 18.5803 -0.337983 14.7625 0.697935C10.9447 1.73385 7.51984 3.87868 4.9211 6.86117C2.32235 9.84365 0.666437 13.5298 0.162779 17.4535C-0.340878 21.3771 0.330347 25.362 2.09156 28.9041C3.85278 32.4463 6.62487 35.3866 10.0572 37.3532C13.4896 39.3197 17.4281 40.2243 21.3746 39.9524C25.3211 39.6804 29.0983 38.2443 32.2285 35.8255C40.9659 29.0731 42.5784 16.5163 35.8285 7.77577H35.8291Z" fill="#FF6C37"/>
<path d="M26.7454 12.7433L18.3124 21.2432L15.9293 18.7932C24.2291 10.4933 25.0623 11.2433 26.746 12.7433H26.7454Z" fill="white"/>
<path d="M18.3124 21.4756C18.2377 21.4738 18.1664 21.4442 18.1124 21.3925L15.7124 18.9925C15.6584 18.9366 15.6282 18.8619 15.6282 18.7841C15.6282 18.7063 15.6584 18.6316 15.7124 18.5757C23.8955 10.3926 25.0123 10.7757 26.9454 12.5257C26.9778 12.5516 27.0037 12.5847 27.0211 12.6224C27.0384 12.66 27.0468 12.7012 27.0454 12.7426C27.0579 12.8238 27.0267 12.907 26.9623 12.9595L18.5293 21.3931C18.4701 21.4474 18.3926 21.4771 18.3124 21.4763V21.4756ZM16.3455 18.7925L18.3124 20.7594L26.3123 12.7595C26.0361 12.4133 25.642 12.1811 25.2053 12.1073C24.7686 12.0335 24.3201 12.1233 23.9455 12.3595C22.4955 13.0095 20.1624 14.9926 16.3455 18.7925Z" fill="#FF6C37"/>
<path d="M20.7292 23.5931L18.4292 21.2432L26.8623 12.9095C29.1292 15.1264 25.7623 18.8263 20.7292 23.5925V23.5931Z" fill="white"/>
<path d="M20.7292 23.8931C20.6555 23.8873 20.5854 23.8582 20.5292 23.81L18.1793 21.51C18.144 21.4246 18.144 21.3286 18.1793 21.2432C18.1543 21.173 18.1543 21.0964 18.1793 21.0263L26.6123 12.5933C26.671 12.5381 26.7484 12.5075 26.8289 12.5075C26.9094 12.5075 26.9868 12.5381 27.0454 12.5933C27.3185 12.8446 27.5343 13.1518 27.6781 13.494C27.8218 13.8362 27.8902 14.2054 27.8786 14.5764C27.8786 16.8263 25.3117 19.6594 20.9455 23.7931C20.8872 23.8509 20.8104 23.8862 20.7286 23.8931H20.7292ZM18.8624 21.2432L20.7455 23.1256C24.0786 19.9757 27.2623 16.7257 27.2786 14.5257C27.2967 14.0593 27.1425 13.6026 26.8454 13.2426L18.8624 21.2432Z" fill="#FF6C37"/>
<path d="M15.9955 18.8432L17.6624 20.51C17.673 20.5194 17.6815 20.531 17.6874 20.5439C17.6932 20.5568 17.6962 20.5709 17.6962 20.585C17.6962 20.5992 17.6932 20.6133 17.6874 20.6262C17.6815 20.6391 17.673 20.6507 17.6624 20.66L14.1455 21.41C14.0745 21.4254 14.0005 21.4171 13.9346 21.3864C13.8688 21.3557 13.8148 21.3044 13.7808 21.2402C13.7468 21.176 13.7348 21.1025 13.7465 21.0308C13.7581 20.9591 13.7929 20.8932 13.8455 20.8432L15.8955 18.8101C15.8955 18.8101 15.9624 18.8101 15.9955 18.8432Z" fill="white"/>
<path d="M14.0624 21.7432C13.9513 21.7418 13.8424 21.7119 13.7461 21.6564C13.6498 21.601 13.5693 21.5217 13.5124 21.4263C13.4483 21.3054 13.4251 21.167 13.4461 21.0319C13.4672 20.8967 13.5314 20.772 13.6293 20.6763L15.6624 18.6263C15.7357 18.5608 15.8306 18.5246 15.9289 18.5246C16.0273 18.5246 16.1222 18.5608 16.1955 18.6263L17.8623 20.2932C17.9611 20.3869 17.9998 20.5288 17.9623 20.6601C17.9248 20.7913 17.8148 20.8957 17.6792 20.9269L14.1624 21.6769L14.0624 21.7432ZM15.9292 19.2101L14.0461 21.0932L17.163 20.4263L15.9292 19.2101Z" fill="#FF6C37"/>
<path d="M31.2292 8.05956C30.0229 6.89582 28.1279 6.84707 26.8629 7.94519C25.5979 9.0433 25.3816 10.9283 26.3666 12.2845C27.3517 13.6408 29.2085 14.0208 30.6461 13.1595L28.3792 10.8927L31.2292 8.05956Z" fill="white"/>
<path d="M28.9792 13.9257C28.2862 13.9169 27.6111 13.7042 27.038 13.3144C26.465 12.9245 26.0194 12.3746 25.7567 11.7333C25.4942 11.0924 25.4253 10.3886 25.5586 9.70899C25.6919 9.02938 26.0215 8.40376 26.5067 7.90954C27.174 7.25452 28.0716 6.88755 29.0067 6.88755C29.9417 6.88755 30.8394 7.25452 31.5067 7.90954C31.5704 7.96328 31.6067 8.04266 31.6067 8.12641C31.6065 8.16761 31.5975 8.2083 31.5803 8.24572C31.563 8.28314 31.5379 8.31641 31.5067 8.34328L28.8067 10.8933L30.8567 12.9101C30.8899 12.9418 30.9148 12.9812 30.9293 13.0248C30.9438 13.0684 30.9474 13.1148 30.9398 13.1601C30.9349 13.2038 30.9204 13.2459 30.8974 13.2834C30.8744 13.3209 30.8434 13.3528 30.8067 13.377C30.2559 13.7212 29.6228 13.9112 28.9736 13.927L28.9792 13.9257ZM28.9792 7.45891C27.7917 7.46516 26.7292 8.17953 26.2836 9.2714C25.8379 10.3633 26.0804 11.6201 26.9129 12.4589C27.327 12.8754 27.8572 13.1571 28.4341 13.2672C29.011 13.3772 29.6077 13.3105 30.1461 13.0757L28.1792 11.1089C28.1479 11.0839 28.1227 11.0522 28.1053 11.0161C28.088 10.98 28.079 10.9405 28.079 10.9005C28.079 10.8604 28.088 10.8209 28.1053 10.7848C28.1227 10.7487 28.1479 10.717 28.1792 10.692L30.7792 8.07516C30.2623 7.67906 29.6303 7.46247 28.9792 7.45829V7.45891Z" fill="#FF6C37"/>
<path d="M31.2791 8.10952L28.4291 10.9426L30.696 13.2095C30.9241 13.0785 31.1365 12.9218 31.3291 12.7426C31.9232 12.1146 32.2501 11.2804 32.2408 10.4159C32.2314 9.55152 31.8866 8.72453 31.2791 8.10952Z" fill="white"/>
<path d="M30.6454 13.4595C30.6079 13.4616 30.5705 13.4551 30.5359 13.4407C30.5013 13.4264 30.4703 13.4044 30.4454 13.3764L28.1785 11.1095C28.1473 11.0845 28.122 11.0528 28.1047 11.0167C28.0873 10.9807 28.0783 10.9411 28.0783 10.9011C28.0783 10.8611 28.0873 10.8215 28.1047 10.7855C28.122 10.7494 28.1473 10.7177 28.1785 10.6927L31.0116 7.90956C31.039 7.8683 31.0761 7.83446 31.1198 7.81105C31.1634 7.78764 31.2121 7.77539 31.2616 7.77539C31.3111 7.77539 31.3599 7.78764 31.4035 7.81105C31.4471 7.83446 31.4843 7.8683 31.5116 7.90956C31.8442 8.23544 32.1084 8.6244 32.2888 9.05368C32.4692 9.48295 32.5621 9.94391 32.5621 10.4095C32.5621 10.8752 32.4692 11.3361 32.2888 11.7654C32.1084 12.1947 31.8442 12.5837 31.5116 12.9095C31.3154 13.1176 31.0909 13.2971 30.8447 13.4426C30.7828 13.4739 30.7111 13.4799 30.6448 13.4595H30.6454ZM28.8123 10.8933L30.6954 12.7764C30.8249 12.6856 30.9475 12.5853 31.0622 12.4764C31.6158 11.9243 31.9276 11.1751 31.9291 10.3933C31.9304 9.69364 31.6754 9.01774 31.2122 8.4933L28.8123 10.8933Z" fill="#FF6C37"/>
<path d="M27.0954 13.0933C26.8697 12.8813 26.5717 12.7633 26.262 12.7633C25.9523 12.7633 25.6543 12.8813 25.4286 13.0933L17.8792 20.6257L19.1292 21.8926L27.1123 14.8926C27.234 14.7759 27.3306 14.6356 27.3961 14.4802C27.4615 14.3248 27.4945 14.1576 27.4929 13.989C27.4913 13.8204 27.4552 13.6539 27.3869 13.4997C27.3185 13.3455 27.2193 13.207 27.0954 13.0926V13.0933Z" fill="white"/>
<path d="M19.0624 22.1932C18.9877 22.1913 18.9164 22.1617 18.8624 22.1101L17.5955 20.8432C17.5415 20.7873 17.5113 20.7125 17.5113 20.6348C17.5113 20.557 17.5415 20.4823 17.5955 20.4263L25.1455 12.9095C25.3629 12.6923 25.6406 12.5455 25.9426 12.488C26.2445 12.4305 26.5567 12.4651 26.8388 12.5872C27.1208 12.7093 27.3597 12.9134 27.5243 13.1729C27.689 13.4324 27.7719 13.7354 27.7623 14.0426C27.7537 14.2511 27.7035 14.4558 27.6147 14.6447C27.526 14.8336 27.4004 15.0029 27.2454 15.1426L19.2624 22.1426C19.2043 22.1836 19.133 22.2015 19.0624 22.1926V22.1932ZM18.1793 20.6257L19.0124 21.4757L26.8454 14.6589C27.0392 14.4901 27.1548 14.2489 27.1623 13.992C27.1698 13.7351 27.0686 13.4839 26.8792 13.3089C26.7043 13.1347 26.4676 13.037 26.2208 13.037C25.974 13.037 25.7372 13.1347 25.5623 13.3089L18.1793 20.6257Z" fill="#FF6C37"/>
<path d="M12.0293 29.2094C12.008 29.2384 11.9965 29.2734 11.9965 29.3094C11.9965 29.3454 12.008 29.3804 12.0293 29.4094L12.3624 30.8594C12.3758 30.9447 12.3631 31.0321 12.3261 31.1101C12.2891 31.1881 12.2295 31.2532 12.1549 31.2969C12.0807 31.3403 11.9946 31.359 11.909 31.3504C11.8234 31.3417 11.7428 31.3062 11.6787 31.2487L9.3956 29.0488L16.5124 21.8757H18.9792L20.6461 23.5425C18.0459 25.8159 15.1468 27.7226 12.0293 29.2094Z" fill="white"/>
<path d="M11.8793 31.6593C11.6906 31.6556 11.5043 31.5781 11.3793 31.4424L9.19622 29.2593C9.16495 29.2343 9.13971 29.2026 9.12236 29.1665C9.10502 29.1305 9.09601 29.0909 9.09601 29.0509C9.09601 29.0109 9.10502 28.9714 9.12236 28.9353C9.13971 28.8992 9.16495 28.8675 9.19622 28.8425L16.3624 21.6594C16.4025 21.6168 16.455 21.5877 16.5124 21.5763H18.9955C19.0602 21.5534 19.1308 21.5534 19.1955 21.5763L20.8624 23.2431C20.8941 23.2724 20.9182 23.3089 20.9327 23.3495C20.9471 23.3901 20.9515 23.4336 20.9455 23.4763C20.9467 23.5177 20.9383 23.5588 20.9209 23.5964C20.9036 23.634 20.8777 23.6671 20.8455 23.6931L20.7124 23.81C18.1017 25.9864 15.2295 27.8284 12.1624 29.2931L12.4793 30.6431C12.5038 30.7472 12.5047 30.8555 12.4821 30.9601C12.4594 31.0646 12.4136 31.1628 12.3482 31.2474C12.2827 31.332 12.1992 31.401 12.1037 31.4492C12.0082 31.4974 11.9032 31.5237 11.7962 31.5262L11.8793 31.6593ZM9.84621 29.0425L11.8124 31.0256C11.8308 31.0419 11.8545 31.0509 11.879 31.0509C11.9036 31.0509 11.9273 31.0419 11.9456 31.0256C11.9578 31.0086 11.9644 30.9881 11.9644 30.9671C11.9644 30.9462 11.9578 30.9257 11.9456 30.9087L11.6124 29.4587C11.5862 29.3547 11.5967 29.2447 11.6423 29.1475C11.6879 29.0504 11.7657 28.972 11.8624 28.9256C14.8471 27.4804 17.6452 25.6783 20.1955 23.5588L18.8286 22.1919H16.5955L9.84621 29.0425Z" fill="#FF6C37"/>
<path d="M7.67935 30.7593L9.34621 29.0925L11.9131 31.6593L7.82997 31.3762C7.75987 31.3707 7.69329 31.3432 7.63974 31.2976C7.58619 31.2521 7.54841 31.1907 7.53178 31.1224C7.51515 31.0541 7.52052 30.9823 7.54713 30.9172C7.57375 30.8521 7.62024 30.7971 7.67997 30.76L7.67935 30.7593Z" fill="white"/>
<path d="M11.9624 31.9093L7.89561 31.6262C7.65436 31.6037 7.44686 31.4387 7.36186 31.2181C7.27686 30.9975 7.32874 30.7356 7.49561 30.5594L9.16247 28.8925C9.2184 28.8385 9.29313 28.8083 9.3709 28.8083C9.44867 28.8083 9.5234 28.8385 9.57934 28.8925L12.1293 31.4425C12.1646 31.4908 12.1836 31.5492 12.1836 31.609C12.1836 31.6689 12.1646 31.7272 12.1293 31.7756C12.0908 31.8379 12.0318 31.885 11.9624 31.9087V31.9093ZM7.89561 30.9762L11.2287 31.1931L9.39559 29.4762L7.89561 30.9762Z" fill="#FF6C37"/>
<path d="M19.2123 22.0769L15.8455 22.5938L17.7955 20.6607L19.2123 22.0769Z" fill="white"/>
<path d="M15.8455 22.9094C15.7896 22.9109 15.7344 22.8958 15.687 22.8662C15.6395 22.8365 15.6018 22.7935 15.5786 22.7426C15.5432 22.6943 15.524 22.6359 15.524 22.576C15.524 22.5161 15.5432 22.4577 15.5786 22.4094L17.5117 20.4594C17.5704 20.4043 17.6478 20.3736 17.7283 20.3736C17.8088 20.3736 17.8862 20.4043 17.9448 20.4594L19.3623 21.8757C19.3906 21.9206 19.4057 21.9726 19.4057 22.0257C19.4057 22.0788 19.3906 22.1308 19.3623 22.1757C19.3484 22.2304 19.319 22.28 19.2777 22.3184C19.2363 22.3569 19.1848 22.3826 19.1292 22.3925L15.7961 22.9094H15.8455ZM17.7955 21.0925L16.7124 22.1757L18.5792 21.8925L17.7955 21.0925Z" fill="#FF6C37"/>
<path d="M19.2124 22.0757L16.8624 22.3757C16.7995 22.39 16.7337 22.3836 16.6747 22.3576C16.6157 22.3315 16.5667 22.2871 16.5349 22.231C16.5032 22.1749 16.4903 22.11 16.4983 22.046C16.5063 21.982 16.5347 21.9223 16.5793 21.8757L17.7961 20.6588L19.2124 22.0757Z" fill="white"/>
<path d="M16.7955 22.6932C16.6866 22.6921 16.5799 22.6623 16.4862 22.6066C16.3926 22.551 16.3154 22.4715 16.2624 22.3763C16.1988 22.2622 16.1741 22.1305 16.1921 22.0011C16.2102 21.8717 16.27 21.7518 16.3624 21.6594L17.5793 20.4426C17.6379 20.3875 17.7153 20.3568 17.7958 20.3568C17.8763 20.3568 17.9537 20.3875 18.0124 20.4426L19.4292 21.8594C19.4714 21.8994 19.501 21.9507 19.5146 22.0071C19.5282 22.0635 19.5251 22.1227 19.5057 22.1774C19.4863 22.2321 19.4515 22.28 19.4054 22.3153C19.3593 22.3506 19.304 22.3718 19.2461 22.3763L16.913 22.6763L16.7955 22.6932ZM16.7955 22.0763L18.5624 21.8594L17.7793 21.0763L16.7793 22.0763H16.7955ZM31.2954 10.0264C31.264 9.9738 31.2144 9.93456 31.156 9.91613C31.0976 9.8977 31.0344 9.90135 30.9785 9.92639C30.9509 9.94037 30.9264 9.95975 30.9065 9.98336C30.8865 10.007 30.8715 10.0344 30.8623 10.0639C30.8437 10.1235 30.8496 10.188 30.8785 10.2433C30.9954 10.4889 30.9629 10.7795 30.7954 10.9933C30.7746 11.0138 30.7583 11.0385 30.7475 11.0658C30.7368 11.093 30.7318 11.1221 30.7329 11.1514C30.7335 11.21 30.7558 11.2663 30.7954 11.3095C30.8382 11.3264 30.8857 11.3264 30.9285 11.3095C30.9673 11.3193 31.0081 11.3182 31.0463 11.3064C31.0845 11.2946 31.1188 11.2726 31.1454 11.2426C31.2826 11.0746 31.3695 10.8712 31.3961 10.6559C31.4226 10.4405 31.3877 10.2221 31.2954 10.0258V10.0264Z" fill="#FF6C37"/>
</svg>
