<svg width="34" height="34" viewBox="0 0 34 34" fill="none" xmlns="http://www.w3.org/2000/svg">
<path d="M15.2291 9.20833C15.5109 9.20833 15.7811 9.32027 15.9804 9.51953C16.1796 9.71879 16.2916 9.98904 16.2916 10.2708V14.1667H20.1874C20.4692 14.1667 20.7395 14.2786 20.9387 14.4779C21.138 14.6771 21.2499 14.9474 21.2499 15.2292C21.2499 15.511 21.138 15.7812 20.9387 15.9805C20.7395 16.1797 20.4692 16.2917 20.1874 16.2917H16.2916V20.1875C16.2916 20.4693 16.1796 20.7395 15.9804 20.9388C15.7811 21.1381 15.5109 21.25 15.2291 21.25C14.9473 21.25 14.677 21.1381 14.4778 20.9388C14.2785 20.7395 14.1666 20.4693 14.1666 20.1875V16.2917H10.2708C9.98896 16.2917 9.71871 16.1797 9.51945 15.9805C9.32019 15.7812 9.20825 15.511 9.20825 15.2292C9.20825 14.9474 9.32019 14.6771 9.51945 14.4779C9.71871 14.2786 9.98896 14.1667 10.2708 14.1667H14.1666V10.2708C14.1666 9.98904 14.2785 9.71879 14.4778 9.51953C14.677 9.32027 14.9473 9.20833 15.2291 9.20833Z" fill="black"/>
<path fill-rule="evenodd" clip-rule="evenodd" d="M15.2291 2.83333C13.2357 2.83338 11.2716 3.31422 9.50353 4.23506C7.73547 5.15589 6.21557 6.48957 5.07276 8.12296C3.92994 9.75635 3.19793 11.6413 2.93879 13.6178C2.67966 15.5944 2.90106 17.6043 3.58421 19.4771C4.26736 21.3499 5.3921 23.0303 6.86304 24.3757C8.33399 25.7212 10.1077 26.6921 12.0338 27.206C13.9599 27.7199 15.9816 27.7617 17.9273 27.3279C19.873 26.894 21.6853 25.9973 23.2106 24.7137L29.3533 30.855C29.4506 30.9594 29.5679 31.0431 29.6982 31.1012C29.8285 31.1593 29.9692 31.1905 30.1119 31.193C30.2546 31.1955 30.3963 31.1693 30.5286 31.1158C30.6609 31.0624 30.781 30.9829 30.8819 30.882C30.9828 30.7811 31.0624 30.6609 31.1158 30.5286C31.1693 30.3963 31.1955 30.2546 31.193 30.1119C31.1905 29.9693 31.1592 29.8286 31.1012 29.6982C31.0431 29.5679 30.9594 29.4506 30.855 29.3533L24.7137 23.2107C26.234 21.4041 27.2068 19.2009 27.5175 16.8603C27.8281 14.5197 27.4639 12.139 26.4675 9.9984C25.4712 7.85777 23.8842 6.04623 21.8933 4.77691C19.9023 3.50758 17.5903 2.83328 15.2291 2.83333ZM4.95831 15.2292C4.95831 12.5052 6.04041 9.89274 7.96657 7.96659C9.89272 6.04043 12.5051 4.95833 15.2291 4.95833C17.9531 4.95833 20.5656 6.04043 22.4917 7.96659C24.4179 9.89274 25.5 12.5052 25.5 15.2292C25.5 17.9532 24.4179 20.5656 22.4917 22.4917C20.5656 24.4179 17.9531 25.5 15.2291 25.5C12.5051 25.5 9.89272 24.4179 7.96657 22.4917C6.04041 20.5656 4.95831 17.9532 4.95831 15.2292Z" fill="black"/>
</svg>
